<svg viewBox="0 0 370 332" fill="none"
    xmlns="http://www.w3.org/2000/svg">
    <g opacity="0.5" clip-path="url(#clip0)">
        <path d="M95.4221 326.356C87.5781 324.696 -6.54992 309.461 0.369083 197.208C7.28808 84.9553 15.9831 51.1651 52.6131 38.8073C89.2431 26.4495 178.191 -31.9825 248.01 23.5722C317.829 79.1269 393.161 129.001 363.265 217.718C333.369 306.473 328.485 336.058 250.452 331.521C172.456 327.02 132.681 334.398 95.4221 326.356Z" fill="#F8F8FF"/>
    </g>
    <g clip-path="url(#clip1)">
        <path d="M279.888 308.791C281.639 307.33 282.64 305.334 282.819 303.232C282.998 301.13 282.39 298.956 280.96 297.246L218.657 222.558C232.24 209.409 241.355 191.557 243.214 171.317C247.36 126.241 213.975 86.2245 168.758 82.0911C123.505 77.9576 83.3635 111.239 79.2172 156.315C75.0708 201.392 108.456 241.408 153.673 245.541C171.009 247.145 187.631 243.19 201.75 235.208L205.646 232.642L268.271 307.722C271.166 311.214 276.385 311.677 279.888 308.791ZM225.484 169.714C222.232 205.062 190.741 231.146 155.318 227.903C119.859 224.66 93.658 193.267 96.9108 157.955C100.164 122.642 131.655 96.487 167.113 99.7296C202.536 102.972 228.737 134.365 225.484 169.714Z" fill="#F8F8FF"/>
        <path d="M88.6533 124.922C85.3647 131.907 82.3979 139.104 80.3247 146.516C78.3945 153.393 77.7869 160.378 78.0728 167.504C78.609 180.902 82.5409 194.051 89.3681 205.596C103.023 228.722 127.579 244.009 154.388 246.04C171.295 247.323 189.811 243.582 204.073 234.139C204.788 233.676 203.072 233.818 202.75 234.067C189.489 242.798 172.475 246.325 156.783 245.399C143.343 244.579 130.189 240.446 118.75 233.355C96.946 219.885 82.3264 196.439 80.0388 170.925C79.3596 163.193 79.6456 155.389 81.5758 147.87C83.649 139.853 86.7945 132.085 90.3333 124.637C90.4762 124.317 88.8677 124.459 88.6533 124.922Z" fill="#D6D8E7"/>
        <path d="M206.539 235.03C214.653 244.758 222.767 254.45 230.881 264.178C242.069 277.576 253.257 290.974 264.446 304.372C265.446 305.548 266.411 306.795 267.448 307.971C271.702 312.817 279.709 311.606 282.818 306.083C282.961 305.833 281.353 305.94 281.103 306.368C278.207 311.535 272.238 311.071 268.735 306.938C267.627 305.62 266.519 304.301 265.411 302.947C260.8 297.388 256.153 291.865 251.542 286.306C239.889 272.338 228.236 258.37 216.548 244.366C213.76 241.016 210.971 237.702 208.183 234.353C207.897 234.103 206.253 234.673 206.539 235.03Z" fill="#D6D8E7"/>
        <path d="M128.221 108.994C146.165 98.1619 168.72 96.9504 187.736 105.823C202.892 112.914 214.938 125.885 220.8 141.528C224.196 150.579 225.483 160.307 224.625 169.928C224.589 170.213 226.305 169.999 226.341 169.464C227.913 151.541 221.908 133.582 209.755 120.255C197.423 106.714 179.622 99.0171 161.285 99.0884C149.168 99.1596 137.265 102.616 126.899 108.888C126.148 109.351 127.864 109.173 128.221 108.994Z" fill="#D6D8E7"/>
        <path d="M284.249 302.626C286 301.165 287.001 299.17 287.18 297.067C287.359 294.965 286.751 292.791 285.321 291.081L223.018 216.393C236.601 203.245 245.716 185.392 247.575 165.153C251.721 120.112 218.3 80.06 173.119 75.9265C127.937 71.793 87.7245 105.075 83.5782 150.151C79.4318 195.227 112.853 235.279 158.034 239.413C175.37 241.016 191.992 237.061 206.111 229.079L210.007 226.513L272.632 301.593C275.563 305.049 280.746 305.513 284.249 302.626ZM229.845 163.549C226.593 198.897 195.102 224.981 159.679 221.738C124.256 218.496 98.0548 187.103 101.308 151.79C104.56 116.442 136.051 90.3581 171.474 93.6007C206.897 96.8433 233.098 128.201 229.845 163.549Z" fill="white"/>
        <path d="M284.963 302.84C288.752 299.491 289.002 294.217 285.821 290.368C284.785 289.121 283.748 287.874 282.711 286.627C277.993 280.997 273.31 275.331 268.592 269.701C256.546 255.27 244.536 240.874 232.49 226.442C229.595 222.986 226.699 219.494 223.804 216.037C223.768 216.215 223.733 216.429 223.733 216.607C237.173 203.494 245.93 186.07 248.182 167.433C250.148 151.184 247.181 134.579 239.675 120.005C232.49 106.073 221.373 94.3135 207.862 86.3673C193.922 78.2072 177.658 74.2875 161.465 75.1071C145.631 75.891 130.117 81.343 117.213 90.5364C104.381 99.6585 94.2297 112.415 88.3318 127.025C82.2195 142.169 80.7539 159.095 84.1854 175.059C87.5097 190.524 95.3735 204.884 106.597 216.073C117.857 227.333 132.333 235.208 147.918 238.522C167.077 242.584 187.38 239.769 204.645 230.576C206.718 229.471 208.613 228.188 210.579 226.87C210.114 226.87 209.685 226.87 209.22 226.87C217.263 236.491 225.27 246.112 233.312 255.733C244.822 269.523 256.296 283.277 267.806 297.068C269.093 298.6 270.344 300.132 271.63 301.664C274.99 305.655 280.674 306.225 284.82 302.983C285.75 302.27 284.32 301.807 283.712 302.306C280.03 305.192 275.705 303.909 272.917 300.595C271.738 299.17 270.522 297.745 269.343 296.284C264.517 290.475 259.656 284.667 254.83 278.859C242.999 264.677 231.132 250.459 219.3 236.277C216.476 232.892 213.653 229.507 210.829 226.157C210.507 225.765 209.828 225.943 209.47 226.157C180.803 245.078 142.092 242.762 115.283 221.596C90.262 201.891 78.8595 168.68 86.5088 137.858C94.0867 107.32 119.644 83.2315 150.635 77.4945C182.269 71.6507 215.011 85.619 232.99 112.13C241.712 124.994 246.645 140.281 247.002 155.781C247.431 173.812 241.784 191.771 231.025 206.238C228.379 209.766 225.448 213.08 222.303 216.18C222.16 216.322 222.088 216.572 222.231 216.75C229.773 225.801 237.351 234.852 244.893 243.938C256.26 257.55 267.627 271.198 278.994 284.81C280.567 286.663 282.104 288.551 283.676 290.404C283.962 290.725 284.213 291.046 284.499 291.366C287.215 294.823 286.822 299.455 283.533 302.377C282.747 303.09 284.427 303.303 284.963 302.84Z" fill="#D6D8E7"/>
        <path d="M228.988 163.62C226.45 189.882 207.576 212.545 181.912 219.351C155.961 226.193 127.973 215.431 112.96 193.374C97.9476 171.317 98.4122 141.35 114.247 119.863C130.082 98.34 158.463 88.8615 184.092 96.7009C209.114 104.362 227.308 127.381 229.131 153.358C229.345 156.779 229.274 160.2 228.988 163.62C228.916 164.44 230.668 164.191 230.739 163.478C233.134 136.325 217.871 109.921 192.957 98.6251C168.257 87.4005 138.482 92.8881 119.287 111.988C99.7705 131.372 94.6233 161.91 106.919 186.533C119.073 210.87 145.845 225.373 172.976 222.237C199.534 219.137 222.268 199.646 228.952 173.776C229.81 170.426 230.417 166.97 230.739 163.513C230.811 162.658 229.059 162.908 228.988 163.62Z" fill="#D6D8E7"/>
        <path opacity="0.5" d="M211.225 203.173C236.435 178.042 236.435 137.295 211.225 112.164C186.015 87.0323 145.142 87.0323 119.932 112.164C94.7219 137.295 94.7219 178.042 119.932 203.173C145.142 228.305 186.015 228.305 211.225 203.173Z" fill="white"/>
        <path d="M171.796 93.066C144.88 90.6786 118.393 105.36 106.597 129.733C94.6586 154.391 99.9488 184.608 119.465 203.815C138.91 222.95 169.15 227.903 193.743 216.108C218.299 204.349 233.419 178.052 230.667 150.97C227.95 124.174 207.969 101.297 181.804 94.7408C178.516 93.9212 175.156 93.3867 171.796 93.066C171.081 92.9948 169.973 94.0281 171.152 94.135C197.46 96.6294 220.051 115.586 227.021 141.029C234.063 166.72 223.876 194.799 202 210.086C179.945 225.48 149.813 225.016 128.116 209.124C106.74 193.445 97.125 165.473 104.345 140.031C111.53 114.696 134.55 95.8454 160.929 93.9925C164.325 93.7431 167.756 93.8143 171.152 94.0994C171.867 94.1707 172.975 93.1373 171.796 93.066Z" fill="#D6D8E7"/>
        <path d="M188.308 174.595C184.77 170.284 179.372 167.112 174.082 165.509C165.217 162.801 155.423 164.547 147.738 169.571C145.951 170.747 144.128 172.065 142.698 173.669C141.983 174.453 143.663 174.631 144.128 174.097C147.524 170.319 152.635 167.683 157.496 166.4C166.254 164.048 175.44 166.079 182.625 171.531C184.09 172.636 185.556 173.883 186.736 175.308C187.165 175.878 188.809 175.237 188.308 174.595Z" fill="#D6D8E7"/>
        <path d="M146.13 148.583C146.13 146.801 144.7 145.34 142.913 145.34C141.126 145.34 139.66 146.766 139.66 148.547C139.66 150.329 141.09 151.79 142.877 151.79C144.664 151.79 146.094 150.365 146.13 148.583Z" fill="#D6D8E7"/>
        <path d="M190.439 148.986C190.533 147.217 189.172 145.707 187.398 145.612C185.624 145.518 184.108 146.875 184.014 148.644C183.919 150.412 185.28 151.923 187.054 152.017C188.829 152.112 190.344 150.755 190.439 148.986Z" fill="#D6D8E7"/>
    </g>

</svg>
