<svg width="235" height="137" viewBox="0 0 235 137" fill="none" xmlns="http://www.w3.org/2000/svg">
<path d="M233.744 28.2807C233.744 35.822 230.804 42.5254 225.764 47.3434C220.933 52.1615 214.003 55.3037 206.653 55.3037H12.3945V47.7624H21.2149C26.6751 47.7624 31.5053 45.6676 35.0755 42.1064C38.6457 38.5453 40.7457 33.7272 40.7457 28.2807C40.7457 17.5973 31.9254 8.7991 21.2149 8.7991H12.3945V1.25781H206.653C221.563 1.25781 233.744 13.4077 233.744 28.2807Z" stroke="#D6D8E7" stroke-width="1.2" stroke-miterlimit="10"/>
<path d="M225.343 28.2805C225.343 33.727 223.242 38.545 219.672 42.1062C216.102 45.6673 211.272 47.7621 205.812 47.7621H21.2139C26.6741 47.7621 31.5043 45.6673 35.0745 42.1062C38.6446 38.545 40.7447 33.727 40.7447 28.2805C40.7447 17.597 31.9243 8.79883 21.2139 8.79883H205.812C216.522 8.79883 225.343 17.597 225.343 28.2805Z" fill="white" stroke="#D6D8E7" stroke-width="1.2" stroke-miterlimit="10"/>
<path d="M40.5312 28.2812C40.5312 28.2812 50.8217 28.2812 66.3624 28.2812" stroke="#D6D8E7" stroke-width="1.2" stroke-miterlimit="10"/>
<path d="M90.5156 28.2812C94.9258 28.2812 99.336 28.2812 103.956 28.2812" stroke="#D6D8E7" stroke-width="1.2" stroke-miterlimit="10"/>
<path d="M109.836 28.2812C130.207 28.2812 152.258 28.2812 171.369 28.2812" stroke="#D6D8E7" stroke-width="1.2" stroke-miterlimit="10"/>
<path d="M179.352 28.2812C204.973 28.2812 224.083 28.2812 224.083 28.2812" stroke="#D6D8E7" stroke-width="1.2" stroke-miterlimit="10"/>
<path d="M220.935 18.2266C220.935 18.2266 210.854 18.2266 195.523 18.2266" stroke="#D6D8E7" stroke-width="1.2" stroke-miterlimit="10"/>
<path d="M172.001 18.2266C167.801 18.2266 163.391 18.2266 158.771 18.2266" stroke="#D6D8E7" stroke-width="1.2" stroke-miterlimit="10"/>
<path d="M152.893 18.2266C132.732 18.2266 111.311 18.2266 92.4102 18.2266" stroke="#D6D8E7" stroke-width="1.2" stroke-miterlimit="10"/>
<path d="M84.638 18.2266C59.4369 18.2266 40.7461 18.2266 40.7461 18.2266" stroke="#D6D8E7" stroke-width="1.2" stroke-miterlimit="10"/>
<path d="M220.935 37.2891C220.935 37.2891 210.854 37.2891 195.523 37.2891" stroke="#D6D8E7" stroke-width="1.2" stroke-miterlimit="10"/>
<path d="M172.001 37.2891C167.801 37.2891 163.391 37.2891 158.771 37.2891" stroke="#D6D8E7" stroke-width="1.2" stroke-miterlimit="10"/>
<path d="M152.893 37.2891C132.732 37.2891 111.311 37.2891 92.4102 37.2891" stroke="#D6D8E7" stroke-width="1.2" stroke-miterlimit="10"/>
<path d="M84.638 37.2891C59.4369 37.2891 40.7461 37.2891 40.7461 37.2891" stroke="#D6D8E7" stroke-width="1.2" stroke-miterlimit="10"/>
<path d="M224.081 55.5137V66.4066C217.361 67.2446 211.481 70.1773 206.86 74.7858C201.61 80.0228 198.25 87.3546 198.25 95.5244C198.25 110.607 209.591 122.966 224.081 124.642V135.535H41.3734C19.1125 135.535 1.26172 117.52 1.26172 95.5244C1.26172 84.4219 5.67191 74.3669 13.0222 67.2446C20.3725 59.9128 30.243 55.5137 41.3734 55.5137H224.081Z" stroke="#D6D8E7" stroke-width="1.2" stroke-miterlimit="10"/>
<path d="M206.859 74.9949C201.609 80.2319 198.249 87.5637 198.249 95.7335C198.249 110.816 209.59 123.175 224.08 124.851V125.061H48.0927C31.922 125.061 18.6914 111.863 18.6914 95.7335C18.6914 87.5637 22.0515 80.2319 27.3018 74.9949C32.552 69.7579 39.9023 66.4062 48.0927 66.4062H224.08V66.6157C217.36 67.4536 211.27 70.3864 206.859 74.9949Z" stroke="#D6D8E7" stroke-width="1.2" stroke-miterlimit="10"/>
<path d="M206.859 74.9949C201.609 80.2319 198.249 87.5637 198.249 95.7335C198.249 110.816 209.59 123.175 224.08 124.851V125.061H48.0927C31.922 125.061 18.6914 111.863 18.6914 95.7335C18.6914 87.5637 22.0515 80.2319 27.3018 74.9949C32.552 69.7579 39.9023 66.4062 48.0927 66.4062H224.08V66.6157C217.36 67.4536 211.27 70.3864 206.859 74.9949Z" stroke="#D6D8E7" stroke-width="1.2" stroke-miterlimit="10"/>
<path d="M201.609 81.6992C201.609 81.6992 133.146 81.6992 93.6641 81.6992" stroke="#D6D8E7" stroke-width="1.2" stroke-miterlimit="10"/>
<path d="M82.744 81.6992C72.8736 81.6992 66.3633 81.6992 66.3633 81.6992" stroke="#D6D8E7" stroke-width="1.2" stroke-miterlimit="10"/>
<path d="M204.76 113.959C204.76 113.959 162.128 113.959 124.746 113.959" stroke="#D6D8E7" stroke-width="1.2" stroke-miterlimit="10"/>
<path d="M112.777 113.959C88.8365 113.959 69.5156 113.959 69.5156 113.959" stroke="#D6D8E7" stroke-width="1.2" stroke-miterlimit="10"/>
<path d="M19.1123 98.666H113.616" stroke="#D6D8E7" stroke-width="1.2" stroke-miterlimit="10"/>
<path d="M164.02 109.978L152.889 96.3614L141.969 109.978V66.6152H164.02V109.978Z" fill="#E30613"/>
</svg>
