<!-- 149x193 -->
<svg viewBox="0 0 149 193" fill="none" xmlns="http://www.w3.org/2000/svg">
<g opacity="0.1">
<path d="M2.38178 179.302C2.38178 179.302 -0.309133 160.794 20.66 159.388C41.6292 157.983 143.884 161.526 143.884 161.526C143.884 161.526 139.578 182.152 143.884 191.06C124.19 190.882 10.2552 191.06 10.2552 191.06C10.2552 191.06 1.70406 186.963 2.38178 179.302Z" fill="#91B3FA"/>
<path d="M145.858 188.784C129.055 188.784 19.3254 188.784 16.8936 188.784C14.2625 188.784 4.23637 189.457 4.47556 178.312C4.59515 172.948 7.46546 169.682 10.4155 167.583C13.1463 165.643 16.4352 164.733 19.8038 164.733C37.0057 164.733 125.208 164.733 137.267 164.733C150.642 164.733 146.695 153.331 146.695 153.331L146.575 153.351L20.9399 153.193C20.9399 153.193 2.3029 164.139 0.329566 175.303C-0.148818 177.936 -0.0690876 180.391 0.329566 182.469C1.46573 188.546 6.80768 193 13.0067 193H145.858C147.054 193 148.011 192.07 148.011 190.882C148.011 189.714 147.034 188.784 145.858 188.784Z" fill="url(#paint0_linear)"/>
<path d="M138.264 0.257355H18.3691V161.803H138.264C142.849 161.803 146.197 157.825 146.197 153.272V8.25448C146.217 3.68187 142.849 0.257355 138.264 0.257355Z" fill="url(#paint1_linear)"/>
<path d="M18.3293 0C18.3293 0 -1.02534 3.82041 0.409809 18.627C1.84496 33.4335 0.330078 175.284 0.330078 175.284C0.330078 175.284 6.13048 161.506 18.3093 161.506C18.3293 130.923 18.3293 0 18.3293 0Z" fill="url(#paint2_linear)"/>
<path d="M130.93 167.425C130.93 167.564 130.81 167.682 130.671 167.682H36.9076C36.768 167.682 36.6484 167.564 36.6484 167.425V167.108C36.6484 166.97 36.768 166.851 36.9076 166.851H130.651C130.79 166.851 130.91 166.97 130.91 167.108V167.425H130.93Z" fill="#BDD0FB"/>
<path d="M133.041 176.55C133.041 176.689 132.842 176.966 132.682 176.966H23.6507C23.4713 176.966 23.0527 176.689 23.0527 176.55V176.155C23.0527 176.016 23.4713 176.135 23.6507 176.135H132.682C132.862 176.135 133.041 176.016 133.041 176.155V176.55Z" fill="#BDD0FB"/>
<path d="M135.174 184.884C135.174 185.181 134.935 185.419 134.636 185.419H66.0479C65.749 185.419 65.5098 185.181 65.5098 184.884V184.686C65.5098 184.389 65.749 184.152 66.0479 184.152H134.636C134.935 184.152 135.174 184.389 135.174 184.686V184.884Z" fill="#BDD0FB"/>
<path d="M22.6159 144.245C22.3767 144.245 22.1973 144.047 22.1973 143.83V84.3657C22.1973 84.1282 22.3966 83.9501 22.6159 83.9501C22.855 83.9501 23.0344 84.148 23.0344 84.3657V143.83C23.0344 144.067 22.855 144.245 22.6159 144.245Z" fill="#91B3FA"/>
<path d="M22.6159 75.4976C22.3767 75.4976 22.1973 75.2997 22.1973 75.0819V46.3992C22.1973 46.1616 22.3966 45.9835 22.6159 45.9835C22.855 45.9835 23.0344 46.1814 23.0344 46.3992V75.0819C23.0344 75.3195 22.855 75.4976 22.6159 75.4976Z" fill="#91B3FA"/>
<path d="M22.6159 21.517C22.3767 21.517 22.1973 21.3191 22.1973 21.1013V5.06749C22.1973 4.82995 22.3966 4.65179 22.6159 4.65179C22.855 4.65179 23.0344 4.84974 23.0344 5.06749V21.1013C23.0344 21.3191 22.855 21.517 22.6159 21.517Z" fill="#91B3FA"/>
</g>
<defs>
<linearGradient id="paint0_linear" x1="69.5733" y1="110.947" x2="77.2444" y2="220.716" gradientUnits="userSpaceOnUse">
<stop stop-color="#09005D"/>
<stop offset="1" stop-color="#1A0F91"/>
</linearGradient>
<linearGradient id="paint1_linear" x1="66.4178" y1="-139.133" x2="93.2743" y2="245.167" gradientUnits="userSpaceOnUse">
<stop stop-color="#09005D"/>
<stop offset="1" stop-color="#1A0F91"/>
</linearGradient>
<linearGradient id="paint2_linear" x1="0.335241" y1="87.647" x2="18.323" y2="87.647" gradientUnits="userSpaceOnUse">
<stop stop-color="#09005D"/>
<stop offset="1" stop-color="#1A0F91"/>
</linearGradient>
</defs>
</svg>
