<svg width="80" height="92" viewBox="0 0 80 92" fill="none" xmlns="http://www.w3.org/2000/svg">
<path d="M79.8462 19.32L70.6154 0.92C70.3077 0.306667 69.8462 0 69.2308 0H10.7692C10.1538 0 9.69231 0.306667 9.38461 0.92L0.153846 19.32C0 19.4733 0 19.6267 0 19.9333V84.3333C0 85.2533 0.615385 85.8667 1.53846 85.8667H33.3846C36.3077 89.0867 38.6154 91.3867 38.9231 91.54C39.5385 92.1533 40.4615 92.1533 41.0769 91.54C41.3846 91.2333 43.6923 89.0867 46.6154 85.8667H78.4615C79.3846 85.8667 80 85.2533 80 84.3333V19.9333C80 19.6267 80 19.4733 79.8462 19.32ZM76 18.4H50.4615L48 3.06667H68.3077L76 18.4ZM32.3077 21.4667H47.6923V35.42L40.9231 30.82C40.4615 30.5133 39.6923 30.5133 39.2308 30.82L32.3077 35.42V21.4667ZM44.9231 3.06667L47.5385 18.4H32.7692L35.3846 3.06667H44.9231ZM11.6923 3.06667H32L29.3846 18.4H4L11.6923 3.06667ZM40 88.32C34.4615 82.8 23.0769 70.2267 23.0769 62.8667C23.0769 53.5133 30.6154 46 40 46C49.3846 46 56.9231 53.5133 56.9231 62.8667C56.9231 70.2267 45.5385 82.8 40 88.32ZM49.2308 82.8C54.3077 76.82 60 68.8467 60 62.8667C60 51.8267 51.0769 42.9333 40 42.9333C28.9231 42.9333 20 51.8267 20 62.8667C20 68.8467 25.5385 76.82 30.7692 82.8H3.07692V21.4667H29.2308V38.3333C29.2308 39.2533 29.8462 39.8667 30.7692 39.8667C31.0769 39.8667 31.3846 39.7133 31.6923 39.56L40.1538 34.04L48.4615 39.56C49.2308 40.02 50.1539 39.8667 50.6154 39.1C50.7692 38.7933 50.9231 38.4867 50.9231 38.18V21.4667H77.0769V82.8H49.2308Z" fill="#E30613"/>
<path d="M40.0009 55.1992C35.6932 55.1992 32.3086 58.5726 32.3086 62.8659C32.3086 67.1592 35.6932 70.5326 40.0009 70.5326C44.3086 70.5326 47.6932 67.1592 47.6932 62.8659C47.6932 58.5726 44.3086 55.1992 40.0009 55.1992ZM40.0009 67.4659C37.3855 67.4659 35.3855 65.4726 35.3855 62.8659C35.3855 60.2592 37.3855 58.2659 40.0009 58.2659C42.6163 58.2659 44.6163 60.2592 44.6163 62.8659C44.6163 65.4726 42.6163 67.4659 40.0009 67.4659Z" fill="#E30613"/>
</svg>
