<svg width="88" height="124" viewBox="0 0 88 124" fill="none" xmlns="http://www.w3.org/2000/svg">
<path d="M27.01 0.679688L0.998047 26.4775V123.526H87.7044V0.679688H27.01ZM25.7713 7.641V25.249H8.01714L25.7713 7.641ZM83.5756 119.432H5.12692V29.3439H29.9002V4.77458H83.5756V119.432Z" fill="#D6D8E7"/>
<path d="M33.6171 49.4082L27.8367 55.1411L22.0562 49.4082L19.166 52.2746L24.9464 58.0075L19.166 63.7403L22.0562 66.6068L27.8367 60.8739L33.6171 66.6068L36.5073 63.7403L30.7269 58.0075L36.5073 52.2746L33.6171 49.4082Z" fill="#D6D8E7"/>
<path d="M53.023 66.6068L58.8035 60.8739L64.5839 66.6068L67.4741 63.7403L61.6937 58.0075L67.4741 52.2746L64.5839 49.4082L58.8035 55.1411L53.023 49.4082L50.1328 52.2746L55.9132 58.0075L50.1328 63.7403L53.023 66.6068Z" fill="#D6D8E7"/>
<path d="M26.3906 85.2387L29.2808 88.1051L31.1388 86.2624C38.3644 79.0963 50.1317 79.0963 57.3572 86.2624L59.2152 88.1051L62.1054 85.2387L60.2474 83.396C51.3703 74.592 36.9193 74.592 28.0422 83.396L26.3906 85.2387Z" fill="#D6D8E7"/>
</svg>
