<svg width="150" height="38" viewBox="0 0 150 38" fill="none" xmlns="http://www.w3.org/2000/svg">
<g clip-path="url(#clip0)">
<path d="M40.038 9.34517H21.109C19.3655 9.34517 17.8711 7.85983 17.8711 6.00315C17.8711 4.14647 19.3032 2.66113 21.109 2.66113H40.038C40.4116 2.66113 40.7229 2.97058 40.7229 3.34191C40.7229 3.71325 40.4116 4.0227 40.038 4.0227H21.109C20.1127 4.0227 19.241 4.88915 19.241 5.94126C19.241 6.99338 20.0504 7.85983 21.109 7.85983H40.038C40.4116 7.85983 40.7229 8.16928 40.7229 8.54061C40.7229 9.03573 40.4116 9.34517 40.038 9.34517Z" fill="white"/>
<path d="M39.8515 4.76562H18.9922V5.07507H39.7269C39.7269 4.95129 39.7892 4.82751 39.8515 4.76562Z" fill="white"/>
<path d="M39.5401 6.00317C39.5401 5.94128 39.5401 5.87939 39.5401 5.87939H18.9922V6.18884H39.5401C39.5401 6.12695 39.5401 6.06506 39.5401 6.00317Z" fill="white"/>
<path d="M39.7269 6.99365H18.9922V7.3031H39.8515C39.7892 7.17932 39.7269 7.05554 39.7269 6.99365Z" fill="white"/>
<path d="M35.9909 17.4528H17.0619C16.6883 17.4528 16.377 17.1434 16.377 16.7721C16.377 16.4007 16.6883 16.0913 17.0619 16.0913H35.9909C36.9872 16.0913 37.8589 15.2248 37.8589 14.1727C37.8589 13.1206 37.0494 12.2541 35.9909 12.2541H17.0619C16.6883 12.2541 16.377 11.9447 16.377 11.5734C16.377 11.202 16.6883 10.8926 17.0619 10.8926H35.9909C37.7344 10.8926 39.2288 12.3779 39.2288 14.2346C39.1665 15.9675 37.7344 17.4528 35.9909 17.4528Z" fill="white"/>
<path d="M17.3105 15.4105H38.1698V15.1011H17.3728C17.3728 15.2249 17.3105 15.2867 17.3105 15.4105Z" fill="white"/>
<path d="M17.5586 14.1725C17.5586 14.2344 17.5586 14.2963 17.5586 14.2963H38.1065V13.9868H17.5586C17.5586 14.0487 17.5586 14.1106 17.5586 14.1725Z" fill="white"/>
<path d="M17.3105 12.873C17.3728 12.9349 17.3728 13.0587 17.4351 13.1825H38.1698V12.873H17.3105Z" fill="white"/>
<path d="M40.038 25.622H21.109C19.3655 25.622 17.8711 24.1367 17.8711 22.28C17.8711 20.4233 19.3032 18.938 21.109 18.938H40.038C40.4116 18.938 40.7229 19.2474 40.7229 19.6188C40.7229 19.9901 40.4116 20.2996 40.038 20.2996H21.109C20.1127 20.2996 19.241 21.166 19.241 22.2181C19.241 23.2702 20.0504 24.1367 21.109 24.1367H40.038C40.4116 24.1367 40.7229 24.4461 40.7229 24.8175C40.7229 25.3126 40.4116 25.622 40.038 25.622Z" fill="white"/>
<path d="M39.8515 21.0425H18.9922V21.3519H39.7269C39.7269 21.2281 39.7892 21.1044 39.8515 21.0425Z" fill="white"/>
<path d="M39.7269 23.2085H18.9922V23.5179H39.8515C39.7892 23.4561 39.7269 23.3323 39.7269 23.2085Z" fill="white"/>
<path d="M39.5401 22.28C39.5401 22.2181 39.5401 22.1562 39.5401 22.1562H18.9922V22.4657H39.5401C39.5401 22.4038 39.5401 22.3419 39.5401 22.28Z" fill="white"/>
<path d="M41.5318 30.8208H15.878C15.1308 30.8208 14.4458 30.3257 14.1968 29.5212L6.84932 3.52769H1.74346C0.747198 3.52769 0 2.78502 0 1.79479C0 0.80456 0.747198 0 1.74346 0H8.09465C8.84184 0 9.52678 0.495114 9.77584 1.29967L17.1856 27.2932H41.5318C42.4658 27.2932 43.2752 28.0977 43.2752 29.0879C43.2752 30.0163 42.528 30.8208 41.5318 30.8208Z" fill="white"/>
<path d="M23.1015 35.2768C23.1015 33.7915 21.9184 32.5537 20.4863 32.5537C19.0542 32.5537 17.8711 33.7915 17.8711 35.2768C17.8711 36.7622 19.0542 38 20.4863 38C21.9184 38 23.1015 36.8241 23.1015 35.2768Z" fill="white"/>
<path d="M39.9745 35.2768C39.9745 33.7915 38.7915 32.5537 37.3593 32.5537C35.9272 32.5537 34.7441 33.7915 34.7441 35.2768C34.7441 36.7622 35.9272 38 37.3593 38C38.7915 38 39.9745 36.8241 39.9745 35.2768Z" fill="white"/>
<path d="M62.0175 5.75572H59.3401L61.2703 2.72314H65.3799L62.0175 5.75572ZM62.0798 12.6873C61.5816 12.9349 61.0835 13.0586 60.5231 13.1824C59.6514 13.43 59.2155 13.6157 59.2155 14.3583C59.2155 14.8534 59.7137 15.3486 60.4609 15.3486C61.3326 15.3486 62.0175 14.7915 62.0798 13.6775V12.6873ZM65.8158 15.0391C65.8158 15.8437 65.8158 16.7101 66.3139 17.3909H62.3288C62.2043 17.0815 62.1421 16.7101 62.2043 16.4007H62.1421C61.2703 17.3909 60.0873 17.6385 58.8419 17.6385C56.8494 17.6385 55.2305 16.6482 55.2305 14.4202C55.2305 11.0163 59.0287 11.202 61.0213 10.7687C61.5817 10.645 62.0798 10.5212 62.0798 9.84041C62.0798 9.09774 61.4571 8.85018 60.7722 8.85018C59.5891 8.85018 59.2778 9.46907 59.2778 9.96419H55.6041C55.7286 6.93161 58.4683 6.49839 60.8967 6.49839C65.8158 6.49839 65.7535 8.60262 65.7535 10.645V15.0391H65.8158Z" fill="white"/>
<path d="M72.915 2.84668H68.9922V17.4525H72.915V2.84668Z" fill="white"/>
<path d="M81.3208 9.46885C79.8264 9.46885 79.6396 10.9542 79.6396 12.0682C79.6396 13.1822 79.8264 14.7294 81.3208 14.7294C82.8152 14.7294 83.002 13.2441 83.002 12.0682C83.002 10.8923 82.8152 9.46885 81.3208 9.46885ZM81.3208 17.7001C77.4603 17.7001 75.7168 15.0389 75.7168 12.1301C75.7168 9.2213 77.4603 6.56006 81.3208 6.56006C85.1813 6.56006 86.9248 9.2213 86.9248 12.1301C86.9248 15.0389 85.1813 17.7001 81.3208 17.7001Z" fill="white"/>
<path d="M89.5391 6.80762H93.3373V8.23107H93.3996C94.209 6.99328 95.3298 6.56006 96.762 6.56006C97.8828 6.56006 99.0658 7.17895 99.564 8.23107C99.7508 8.10729 100.498 6.56006 103.051 6.56006C105.666 6.56006 106.6 8.41674 106.6 10.1496V17.4526H102.677V11.6969C102.677 10.7066 102.553 9.7783 101.37 9.7783C100.373 9.7783 100.062 10.5829 100.062 11.6969V17.4526H96.1393V11.6969C96.1393 10.7066 96.0148 9.7783 94.8317 9.7783C93.8355 9.7783 93.5241 10.5829 93.5241 11.6969V17.4526H89.6013V6.80762H89.5391Z" fill="white"/>
<path d="M116.999 11.9445C116.999 10.0879 116.189 8.1693 114.072 8.1693C111.893 8.1693 111.021 9.96409 111.021 12.0064C111.021 13.925 111.706 16.0292 113.885 16.0292C116.189 16.0292 116.999 13.925 116.999 11.9445ZM118.68 16.5244C118.68 19.9901 117.185 21.723 113.948 21.723C112.017 21.723 109.838 20.9185 109.713 18.6286H111.395C111.457 19.8664 112.951 20.3615 114.072 20.3615C116.251 20.3615 117.123 18.7524 117.123 16.3387V15.6579H117.061C116.5 16.9576 115.193 17.5765 113.885 17.5765C110.834 17.5765 109.34 15.1009 109.34 12.1921C109.34 9.71653 110.523 6.62207 114.072 6.62207C115.38 6.62207 116.5 7.24096 117.123 8.35497V6.86963H118.68V16.5244Z" fill="white"/>
<path d="M126.215 18.8761C125.406 20.9185 124.721 21.723 123.226 21.723C122.853 21.723 122.417 21.6612 122.043 21.5374V19.9283C122.354 20.052 122.666 20.1758 123.039 20.1758C123.724 20.1758 124.098 19.8664 124.409 19.1856L125.094 17.3908L121.047 6.86963H122.977L125.966 15.5341H126.028L128.892 6.86963H130.698L126.215 18.8761Z" fill="white"/>
<path d="M138.108 2.47559H140.287L137.672 5.38438H136.427L138.108 2.47559ZM139.416 11.9446C138.108 12.9349 134.31 11.9446 134.31 14.544C134.31 15.7199 135.244 16.0912 136.302 16.0912C138.544 16.0912 139.416 14.6678 139.416 13.6775V11.9446ZM142.155 17.3909C141.844 17.5766 141.471 17.7003 140.972 17.7003C140.101 17.7003 139.54 17.2052 139.54 16.0912C138.606 17.2671 137.361 17.7003 135.929 17.7003C134.061 17.7003 132.566 16.8339 132.566 14.7297C132.566 12.316 134.31 11.8209 136.053 11.4495C137.921 11.0782 139.478 11.202 139.478 9.9023C139.478 8.35506 138.233 8.1694 137.174 8.1694C135.742 8.1694 134.683 8.60262 134.621 10.1499H132.94C133.065 7.5505 134.995 6.62217 137.299 6.62217C139.167 6.62217 141.159 7.05539 141.159 9.53096V14.9772C141.159 15.7818 141.159 16.1531 141.72 16.1531C141.906 16.1531 142.031 16.0912 142.218 16.0293V17.3909H142.155Z" fill="white"/>
<path d="M144.646 6.86952H146.203V9.09753H146.265C147.075 7.36464 148.196 6.56008 150.001 6.62197V8.47864C147.262 8.47864 146.328 10.0259 146.328 12.749V17.4526H144.646V6.86952Z" fill="white"/>
<path d="M55.541 22.9609H57.1599V29.088L60.0242 25.9316H62.0167L59.2147 28.7785L62.2658 33.7297H60.3355L58.0939 29.9544L57.1599 30.9447V33.7297H55.541V22.9609Z" fill="white"/>
<path d="M68.4314 24.694H66.8125V23.0848H68.4314V24.694ZM64.4464 23.0229H66.0653V24.6321H64.4464V23.0229ZM66.3766 32.5539C66.7502 32.5539 67.0615 32.492 67.3106 32.3063C67.5597 32.1207 67.8087 31.935 67.9333 31.6874C68.1201 31.4399 68.2446 31.1304 68.3069 30.821C68.3691 30.5115 68.4314 30.1402 68.4314 29.8308C68.4314 29.5213 68.3691 29.15 68.3069 28.8405C68.2446 28.5311 68.1201 28.2216 67.9333 27.9741C67.7465 27.7265 67.5597 27.479 67.3106 27.3552C67.0615 27.1695 66.7502 27.1076 66.3766 27.1076C66.003 27.1076 65.6917 27.1695 65.4426 27.3552C65.1936 27.5409 64.9445 27.7265 64.82 27.9741C64.6332 28.2216 64.5086 28.5311 64.4464 28.8405C64.3841 29.15 64.3218 29.5213 64.3218 29.8308C64.3218 30.2021 64.3841 30.5115 64.4464 30.821C64.5086 31.1304 64.6332 31.4399 64.82 31.6874C65.0068 31.935 65.1936 32.1826 65.4426 32.3063C65.754 32.492 66.0653 32.5539 66.3766 32.5539ZM66.3766 33.9155C65.8162 33.9155 65.2558 33.7917 64.82 33.606C64.3841 33.4203 63.9482 33.1109 63.6369 32.7396C63.3256 32.3682 63.0765 31.935 62.8897 31.4399C62.7029 30.9448 62.6406 30.3878 62.6406 29.7689C62.6406 29.15 62.7029 28.6549 62.8897 28.0979C63.0765 27.6028 63.2633 27.1695 63.6369 26.7982C63.9482 26.4269 64.3218 26.1793 64.82 25.9317C65.2558 25.7461 65.8162 25.6223 66.3766 25.6223C66.937 25.6223 67.4974 25.7461 67.9333 25.9317C68.3691 26.1174 68.805 26.4269 69.1163 26.7982C69.4277 27.1695 69.6767 27.6028 69.8635 28.0979C70.0503 28.593 70.1126 29.15 70.1126 29.7689C70.1126 30.3878 70.0503 30.9448 69.8635 31.4399C69.6767 31.935 69.4899 32.3682 69.1163 32.7396C68.805 33.1109 68.4314 33.3584 67.9333 33.606C67.4974 33.8536 66.9993 33.9155 66.3766 33.9155Z" fill="white"/>
<path d="M71.4192 25.9316H72.9136V27.0456C73.1627 26.6124 73.474 26.303 73.8476 26.0554C74.2212 25.8079 74.6571 25.6841 75.1552 25.6841C75.9647 25.6841 76.5873 25.9316 77.0232 26.3649C77.4591 26.7981 77.7081 27.4789 77.7081 28.3453V33.6678H76.0892V28.7785C76.0892 28.1597 75.9647 27.7264 75.7156 27.417C75.4665 27.1694 75.1552 26.9838 74.6571 26.9838C74.408 26.9838 74.1589 27.0456 73.9099 27.1694C73.7231 27.2932 73.5363 27.417 73.3495 27.6026C73.225 27.7883 73.1004 28.0359 72.9759 28.2834C72.9136 28.531 72.8513 28.7785 72.8513 29.088V33.6678H71.2324V25.9316H71.4192Z" fill="white"/>
<path d="M78.7051 25.9316H80.4485L82.3788 31.7492L84.2468 25.9316H85.928L83.0637 34.1629C82.9392 34.5342 82.8147 34.8437 82.6901 35.1531C82.5656 35.4626 82.3788 35.772 82.2543 36.0196C82.0675 36.2671 81.8184 36.4528 81.5693 36.5766C81.3203 36.7004 80.9467 36.8241 80.5108 36.8241C80.1372 36.8241 79.7636 36.8241 79.39 36.7623V35.2769C79.5145 35.2769 79.6391 35.3388 79.7636 35.3388C79.8881 35.3388 80.0127 35.4007 80.1372 35.4007C80.324 35.4007 80.5108 35.4007 80.5731 35.3388C80.6976 35.2769 80.8221 35.215 80.8844 35.0912C80.9467 34.9675 81.0089 34.9056 81.0712 34.7818C81.1335 34.658 81.1957 34.4724 81.1957 34.3486L81.3825 33.7297L78.7051 25.9316Z" fill="white"/>
<path d="M86.1152 25.9316H87.8587L89.7267 31.9349L91.5324 25.9316H93.1514L90.5984 33.7297H88.7927L86.1152 25.9316Z" fill="white"/>
<path d="M99.1284 29.1499C99.1284 28.9023 99.0661 28.5929 98.9416 28.3453C98.8793 28.0978 98.7548 27.8502 98.568 27.6645C98.4434 27.4789 98.1944 27.3551 98.0076 27.2313C97.7585 27.1075 97.5094 27.0456 97.2604 27.0456C96.949 27.0456 96.7 27.1075 96.5132 27.2313C96.2641 27.3551 96.0773 27.4789 95.8905 27.6645C95.7037 27.8502 95.5792 28.0978 95.5169 28.3453C95.3924 28.5929 95.3924 28.8404 95.3301 29.1499H99.1284ZM95.3924 30.2639C95.3924 30.5733 95.4546 30.8828 95.5169 31.1303C95.5792 31.4398 95.7037 31.6873 95.8905 31.873C96.0773 32.0587 96.2641 32.2443 96.5132 32.3681C96.7622 32.4919 97.0736 32.5538 97.3849 32.5538C97.883 32.5538 98.2566 32.43 98.5057 32.2443C98.817 32.0587 99.0038 31.6873 99.1284 31.2541H100.623C100.56 31.6873 100.374 32.0587 100.187 32.3681C100 32.6776 99.751 32.987 99.4397 33.1727C99.1284 33.4202 98.817 33.544 98.4434 33.6678C98.0698 33.7916 97.6962 33.8535 97.3226 33.8535C96.7622 33.8535 96.2641 33.7297 95.8282 33.544C95.3924 33.3583 95.0188 33.0489 94.7074 32.6776C94.3961 32.3062 94.147 31.873 94.0225 31.3779C93.898 30.8828 93.7734 30.3258 93.7734 29.7069C93.7734 29.1499 93.8357 28.6548 94.0225 28.1597C94.2093 27.6645 94.3961 27.2313 94.7074 26.86C95.0188 26.4886 95.3924 26.1792 95.8282 25.9935C96.2641 25.746 96.7622 25.6841 97.3226 25.6841C97.883 25.6841 98.3812 25.8079 98.8793 26.0554C99.3152 26.303 99.6888 26.6743 100 27.0456C100.311 27.417 100.498 27.974 100.685 28.4691C100.81 29.0261 100.872 29.5831 100.81 30.1401H95.3924V30.2639Z" fill="white"/>
<path d="M103.176 31.2541C103.239 31.7492 103.425 32.1206 103.737 32.3062C104.048 32.4919 104.422 32.6157 104.857 32.6157C104.982 32.6157 105.169 32.6157 105.356 32.5538C105.542 32.5538 105.729 32.4919 105.916 32.43C106.103 32.3681 106.227 32.2443 106.352 32.1206C106.476 31.9968 106.539 31.8111 106.476 31.5636C106.476 31.316 106.414 31.1922 106.227 31.0066C106.103 30.8828 105.916 30.759 105.667 30.6971C105.418 30.6352 105.169 30.5114 104.92 30.4496C104.608 30.3877 104.359 30.3258 104.048 30.2639C103.737 30.202 103.488 30.0782 103.176 30.0163C102.927 29.8926 102.678 29.7688 102.429 29.5831C102.18 29.3974 102.055 29.2118 101.931 28.9023C101.806 28.6548 101.744 28.2834 101.744 27.9121C101.744 27.4789 101.869 27.1075 102.055 26.86C102.242 26.5505 102.491 26.3649 102.803 26.1792C103.114 25.9935 103.425 25.8698 103.799 25.8079C104.173 25.746 104.484 25.6841 104.857 25.6841C105.231 25.6841 105.605 25.746 105.916 25.8079C106.29 25.8698 106.539 26.0554 106.85 26.2411C107.099 26.4268 107.348 26.6743 107.535 26.9838C107.722 27.2932 107.846 27.6645 107.909 28.0978H106.227C106.165 27.6645 105.978 27.417 105.729 27.2932C105.48 27.1694 105.107 27.1075 104.795 27.1075C104.671 27.1075 104.546 27.1075 104.422 27.1075C104.297 27.1075 104.11 27.1694 103.986 27.2313C103.861 27.2932 103.737 27.3551 103.612 27.4789C103.488 27.6026 103.488 27.7264 103.488 27.9121C103.488 28.0978 103.55 28.2834 103.674 28.4072C103.799 28.531 103.986 28.6548 104.235 28.7167C104.484 28.7785 104.733 28.9023 104.982 28.9642C105.293 29.0261 105.542 29.088 105.854 29.1499C106.165 29.2118 106.414 29.3355 106.725 29.3974C107.037 29.5212 107.286 29.645 107.473 29.8307C107.722 30.0163 107.846 30.202 108.033 30.4496C108.158 30.6971 108.22 31.0066 108.22 31.4398C108.22 31.873 108.095 32.3062 107.909 32.6157C107.722 32.9251 107.473 33.1727 107.161 33.4202C106.85 33.6059 106.476 33.7916 106.103 33.8535C105.729 33.9154 105.356 33.9772 104.982 33.9772C104.546 33.9772 104.11 33.9154 103.737 33.7916C103.363 33.6678 102.989 33.4821 102.74 33.2965C102.429 33.0489 102.242 32.8013 102.055 32.43C101.869 32.1206 101.806 31.6873 101.806 31.2541H103.176Z" fill="white"/>
<path d="M114.944 29.8306C114.944 29.4593 114.882 29.1499 114.819 28.7785C114.757 28.4691 114.632 28.1596 114.446 27.9121C114.259 27.6645 114.072 27.4789 113.823 27.2932C113.574 27.1075 113.263 27.0456 112.951 27.0456C112.266 27.0456 111.768 27.2932 111.395 27.7883C111.021 28.2834 110.897 28.9642 110.897 29.7688C110.897 30.1401 110.959 30.5114 111.021 30.8828C111.083 31.1922 111.27 31.5017 111.395 31.7492C111.581 31.9968 111.768 32.1824 112.017 32.3062C112.266 32.43 112.578 32.4919 112.889 32.4919C113.263 32.4919 113.574 32.43 113.823 32.2443C114.072 32.0587 114.259 31.873 114.446 31.6254C114.632 31.3779 114.757 31.0684 114.819 30.759C114.944 30.5114 114.944 30.202 114.944 29.8306ZM109.34 22.9609H110.959V26.9218C111.083 26.7362 111.208 26.5505 111.395 26.4267C111.581 26.303 111.706 26.1173 111.893 26.0554C112.08 25.9316 112.266 25.8697 112.515 25.8078C112.702 25.746 112.951 25.746 113.138 25.746C113.698 25.746 114.197 25.8697 114.632 26.0554C115.068 26.2411 115.442 26.5505 115.691 26.9218C116.002 27.2932 116.189 27.7264 116.314 28.2215C116.438 28.7166 116.5 29.2736 116.5 29.8306C116.5 30.3258 116.438 30.8828 116.314 31.3779C116.189 31.873 116.002 32.3062 115.753 32.6775C115.504 33.0489 115.193 33.3583 114.757 33.6059C114.383 33.8534 113.885 33.9153 113.387 33.9153C113.138 33.9153 112.889 33.9153 112.64 33.8534C112.391 33.7916 112.142 33.7297 111.955 33.6678C111.706 33.544 111.519 33.4202 111.332 33.2964C111.146 33.1108 111.021 32.9251 110.897 32.6775V33.7297H109.402V22.9609H109.34Z" fill="white"/>
<path d="M121.232 32.5537C121.606 32.5537 121.917 32.4918 122.166 32.3061C122.415 32.1204 122.664 31.9348 122.789 31.6872C122.976 31.4397 123.1 31.1302 123.162 30.8208C123.225 30.5113 123.287 30.14 123.287 29.8305C123.287 29.5211 123.225 29.1498 123.162 28.8403C123.1 28.5309 122.976 28.2214 122.789 27.9739C122.602 27.7263 122.415 27.4787 122.166 27.355C121.917 27.1693 121.606 27.1074 121.232 27.1074C120.858 27.1074 120.547 27.1693 120.298 27.355C120.049 27.5406 119.8 27.7263 119.675 27.9739C119.489 28.2214 119.364 28.5309 119.302 28.8403C119.24 29.1498 119.177 29.5211 119.177 29.8305C119.177 30.2019 119.24 30.5113 119.302 30.8208C119.364 31.1302 119.489 31.4397 119.675 31.6872C119.862 31.9348 120.049 32.1823 120.298 32.3061C120.609 32.4918 120.921 32.5537 121.232 32.5537ZM121.232 33.9152C120.672 33.9152 120.111 33.7915 119.675 33.6058C119.24 33.4201 118.804 33.1107 118.492 32.7393C118.181 32.368 117.932 31.9348 117.745 31.4397C117.558 30.9445 117.496 30.3875 117.496 29.7686C117.496 29.1498 117.558 28.6546 117.745 28.0976C117.932 27.6025 118.119 27.1693 118.492 26.798C118.804 26.4266 119.177 26.1791 119.675 25.9315C120.111 25.7458 120.672 25.6221 121.232 25.6221C121.792 25.6221 122.353 25.7458 122.789 25.9315C123.225 26.1172 123.66 26.4266 123.972 26.798C124.283 27.1693 124.532 27.6025 124.719 28.0976C124.906 28.5928 124.968 29.1498 124.968 29.7686C124.968 30.3875 124.906 30.9445 124.719 31.4397C124.532 31.9348 124.345 32.368 123.972 32.7393C123.66 33.1107 123.287 33.3582 122.789 33.6058C122.353 33.8533 121.855 33.9152 121.232 33.9152Z" fill="white"/>
<path d="M127.957 22.9609H126.338V33.7297H127.957V22.9609Z" fill="white"/>
<path d="M128.953 25.9314H130.136V23.5796H131.755V25.9314H133.187V27.2311H131.755V31.3776C131.755 31.5633 131.755 31.6871 131.755 31.8728C131.755 31.9965 131.817 32.1203 131.88 32.1822C131.942 32.2441 132.004 32.3679 132.129 32.3679C132.253 32.4298 132.378 32.4298 132.565 32.4298C132.689 32.4298 132.814 32.4298 132.876 32.4298C132.938 32.4298 133.125 32.4298 133.187 32.3679V33.6675C133 33.6675 132.814 33.7294 132.689 33.7294C132.502 33.7294 132.316 33.7294 132.191 33.7294C131.755 33.7294 131.444 33.6675 131.195 33.6056C130.946 33.5438 130.759 33.42 130.572 33.2343C130.448 33.0486 130.323 32.863 130.261 32.6154C130.198 32.3679 130.198 32.0584 130.198 31.749V27.2311H129.015V25.9314H128.953Z" fill="white"/>
<path d="M138.23 32.4917C138.604 32.4917 138.915 32.4298 139.164 32.2441C139.413 32.0584 139.662 31.8728 139.787 31.6252C139.974 31.3776 140.098 31.0682 140.16 30.7588C140.223 30.4493 140.285 30.078 140.285 29.7685C140.285 29.4591 140.223 29.0877 140.16 28.7783C140.098 28.4689 139.974 28.1594 139.787 27.9118C139.6 27.6643 139.413 27.4167 139.164 27.293C138.915 27.1073 138.604 27.0454 138.23 27.0454C137.857 27.0454 137.545 27.1073 137.296 27.293C137.047 27.4786 136.798 27.6643 136.673 27.9118C136.487 28.1594 136.362 28.4689 136.3 28.7783C136.238 29.0877 136.175 29.4591 136.175 29.7685C136.175 30.1399 136.238 30.4493 136.3 30.7588C136.362 31.0682 136.487 31.3776 136.673 31.6252C136.86 31.8728 137.047 32.1203 137.296 32.2441C137.545 32.3679 137.857 32.4917 138.23 32.4917ZM138.23 33.8532C137.67 33.8532 137.109 33.7294 136.673 33.5438C136.238 33.3581 135.802 33.0487 135.49 32.6773C135.179 32.306 134.93 31.8728 134.743 31.3776C134.556 30.8825 134.494 30.3255 134.494 29.7066C134.494 29.0877 134.556 28.5926 134.743 28.0356C134.93 27.5405 135.117 27.1073 135.49 26.736C135.802 26.3646 136.175 26.1171 136.673 25.8695C137.109 25.6838 137.67 25.5601 138.23 25.5601C138.791 25.5601 139.351 25.6838 139.787 25.8695C140.223 26.0552 140.659 26.3646 140.97 26.736C141.281 27.1073 141.53 27.5405 141.717 28.0356C141.904 28.5307 141.966 29.0877 141.966 29.7066C141.966 30.3255 141.904 30.8825 141.717 31.3776C141.53 31.8728 141.343 32.306 140.97 32.6773C140.659 33.0487 140.285 33.2962 139.787 33.5438C139.351 33.7294 138.853 33.8532 138.23 33.8532Z" fill="white"/>
<path d="M143.275 23.085V33.8537H144.894V31.0687L145.828 30.0166L148.07 33.8537H150L146.949 28.9026L149.751 26.0556H147.759L144.894 29.212V23.085H143.275Z" fill="white"/>
</g>
<defs>
<clipPath id="clip0">
<rect width="150" height="38" fill="white"/>
</clipPath>
</defs>
</svg>
