<svg width="129" height="32" viewBox="0 0 129 32" fill="none" xmlns="http://www.w3.org/2000/svg">
<path d="M34.4327 7.86963H18.1537C16.6543 7.86963 15.3691 6.61882 15.3691 5.0553C15.3691 3.49178 16.6008 2.24097 18.1537 2.24097H34.4327C34.7539 2.24097 35.0217 2.50155 35.0217 2.81426C35.0217 3.12696 34.7539 3.38755 34.4327 3.38755H18.1537C17.2969 3.38755 16.5472 4.11719 16.5472 5.00318C16.5472 5.88918 17.2434 6.61882 18.1537 6.61882H34.4327C34.7539 6.61882 35.0217 6.8794 35.0217 7.19211C35.0217 7.60905 34.7539 7.86963 34.4327 7.86963Z" fill="#E30613"/>
<path d="M34.271 4.01318H16.332V4.27377H34.1639C34.1639 4.16954 34.2175 4.0653 34.271 4.01318Z" fill="#E30613"/>
<path d="M34.0033 5.05541C34.0033 5.00329 34.0033 4.95117 34.0033 4.95117H16.332V5.21176H34.0033C34.0033 5.15964 34.0033 5.10752 34.0033 5.05541Z" fill="#E30613"/>
<path d="M34.1639 5.88916H16.332V6.14975H34.271C34.2175 6.04551 34.1639 5.94128 34.1639 5.88916Z" fill="#E30613"/>
<path d="M30.952 14.697H14.673C14.3517 14.697 14.084 14.4365 14.084 14.1237C14.084 13.811 14.3517 13.5505 14.673 13.5505H30.952C31.8088 13.5505 32.5585 12.8208 32.5585 11.9348C32.5585 11.0488 31.8623 10.3192 30.952 10.3192H14.673C14.3517 10.3192 14.084 10.0586 14.084 9.7459C14.084 9.43319 14.3517 9.17261 14.673 9.17261H30.952C32.4514 9.17261 33.7365 10.4234 33.7365 11.9869C33.683 13.4462 32.4514 14.697 30.952 14.697Z" fill="#E30613"/>
<path d="M14.8867 12.9771H32.8257V12.7166H14.9403C14.9403 12.8208 14.8867 12.8729 14.8867 12.9771Z" fill="#E30613"/>
<path d="M15.1016 11.9349C15.1016 11.987 15.1016 12.0392 15.1016 12.0392H32.7728V11.7786H15.1016C15.1016 11.8307 15.1016 11.8828 15.1016 11.9349Z" fill="#E30613"/>
<path d="M14.8867 10.8403C14.9403 10.8924 14.9403 10.9967 14.9938 11.1009H32.8257V10.8403H14.8867Z" fill="#E30613"/>
<path d="M34.4327 21.5767H18.1537C16.6543 21.5767 15.3691 20.3258 15.3691 18.7623C15.3691 17.1988 16.6008 15.948 18.1537 15.948H34.4327C34.7539 15.948 35.0217 16.2086 35.0217 16.5213C35.0217 16.834 34.7539 17.0946 34.4327 17.0946H18.1537C17.2969 17.0946 16.5472 17.8242 16.5472 18.7102C16.5472 19.5962 17.2434 20.3258 18.1537 20.3258H34.4327C34.7539 20.3258 35.0217 20.5864 35.0217 20.8991C35.0217 21.3161 34.7539 21.5767 34.4327 21.5767Z" fill="#E30613"/>
<path d="M34.271 17.72H16.332V17.9806H34.1639C34.1639 17.8763 34.2175 17.7721 34.271 17.72Z" fill="#E30613"/>
<path d="M34.1639 19.5439H16.332V19.8045H34.271C34.2175 19.7524 34.1639 19.6482 34.1639 19.5439Z" fill="#E30613"/>
<path d="M34.0033 18.7622C34.0033 18.7101 34.0033 18.658 34.0033 18.658H16.332V18.9185H34.0033C34.0033 18.8664 34.0033 18.8143 34.0033 18.7622Z" fill="#E30613"/>
<path d="M35.7173 25.9544H13.655C13.0125 25.9544 12.4234 25.5375 12.2092 24.8599L5.89041 2.97068H1.49938C0.64259 2.97068 0 2.34528 0 1.5114C0 0.677524 0.64259 0 1.49938 0H6.9614C7.60399 0 8.19303 0.416938 8.40722 1.09446L14.7796 22.9837H35.7173C36.5205 22.9837 37.2167 23.6612 37.2167 24.4951C37.2167 25.2769 36.5741 25.9544 35.7173 25.9544Z" fill="black"/>
<path d="M19.8673 29.7067C19.8673 28.4559 18.8498 27.4136 17.6182 27.4136C16.3866 27.4136 15.3691 28.4559 15.3691 29.7067C15.3691 30.9575 16.3866 31.9999 17.6182 31.9999C18.8498 31.9999 19.8673 31.0097 19.8673 29.7067Z" fill="black"/>
<path d="M34.379 29.7067C34.379 28.4559 33.3616 27.4136 32.1299 27.4136C30.8983 27.4136 29.8809 28.4559 29.8809 29.7067C29.8809 30.9575 30.8983 31.9999 32.1299 31.9999C33.3616 31.9999 34.379 31.0097 34.379 29.7067Z" fill="black"/>
<path d="M53.3349 4.84696H51.0323L52.6923 2.29321H56.2266L53.3349 4.84696ZM53.3885 10.6841C52.9601 10.8926 52.5317 10.9968 52.0497 11.101C51.3 11.3095 50.9252 11.4659 50.9252 12.0913C50.9252 12.5082 51.3536 12.9251 51.9962 12.9251C52.7459 12.9251 53.3349 12.4561 53.3885 11.518V10.6841ZM56.6014 12.6645C56.6014 13.3421 56.6014 14.0717 57.0298 14.645H53.6027C53.4956 14.3844 53.442 14.0717 53.4956 13.8111H53.442C52.6923 14.645 51.6749 14.8535 50.6039 14.8535C48.8903 14.8535 47.498 14.0196 47.498 12.1434C47.498 9.27693 50.7646 9.43328 52.4781 9.06846C52.9601 8.96422 53.3885 8.85999 53.3885 8.2867C53.3885 7.66129 52.853 7.45282 52.2639 7.45282C51.2465 7.45282 50.9787 7.974 50.9787 8.39093H47.8193C47.9264 5.83719 50.2826 5.47237 52.371 5.47237C56.6014 5.47237 56.5479 7.24435 56.5479 8.96422V12.6645H56.6014Z" fill="#E30613"/>
<path d="M62.7056 2.39746H59.332V14.6971H62.7056V2.39746Z" fill="#E30613"/>
<path d="M69.9347 7.97393C68.6495 7.97393 68.4888 9.22474 68.4888 10.1629C68.4888 11.101 68.6495 12.4039 69.9347 12.4039C71.2198 12.4039 71.3805 11.1531 71.3805 10.1629C71.3805 9.17262 71.2198 7.97393 69.9347 7.97393ZM69.9347 14.9055C66.6146 14.9055 65.1152 12.6645 65.1152 10.215C65.1152 7.76546 66.6146 5.52441 69.9347 5.52441C73.2547 5.52441 74.7541 7.76546 74.7541 10.215C74.7541 12.6645 73.2547 14.9055 69.9347 14.9055Z" fill="#E30613"/>
<path d="M77.0039 5.73288H80.2704V6.93158H80.324C81.0201 5.88923 81.984 5.52441 83.2156 5.52441C84.1795 5.52441 85.1969 6.04559 85.6253 6.93158C85.786 6.82735 86.4286 5.52441 88.6241 5.52441C90.8731 5.52441 91.6764 7.08793 91.6764 8.54722V14.6971H88.3028V9.85015C88.3028 9.01627 88.1957 8.23451 87.1783 8.23451C86.3215 8.23451 86.0537 8.91204 86.0537 9.85015V14.6971H82.6801V9.85015C82.6801 9.01627 82.573 8.23451 81.5556 8.23451C80.6988 8.23451 80.4311 8.91204 80.4311 9.85015V14.6971H77.0575V5.73288H77.0039Z" fill="#E30613"/>
<path d="M100.618 10.0587C100.618 8.49523 99.9217 6.87959 98.101 6.87959C96.2268 6.87959 95.4771 8.39099 95.4771 10.1109C95.4771 11.7265 96.0661 13.4985 97.9403 13.4985C99.9217 13.4985 100.618 11.7265 100.618 10.0587ZM102.064 13.9154C102.064 16.834 100.778 18.2933 97.9939 18.2933C96.3339 18.2933 94.4596 17.6157 94.3525 15.6874H95.7984C95.8519 16.7298 97.1371 17.1467 98.101 17.1467C99.9752 17.1467 100.725 15.7916 100.725 13.7591V13.1858H100.671C100.189 14.2802 99.0649 14.8014 97.9403 14.8014C95.3164 14.8014 94.0312 12.7167 94.0312 10.2672C94.0312 8.18252 95.0487 5.57666 98.101 5.57666C99.2255 5.57666 100.189 6.09783 100.725 7.03594V5.78513H102.064V13.9154Z" fill="#E30613"/>
<path d="M108.544 15.8959C107.848 17.6158 107.259 18.2933 105.974 18.2933C105.653 18.2933 105.278 18.2412 104.956 18.1369V16.7819C105.224 16.8861 105.492 16.9904 105.813 16.9904C106.402 16.9904 106.724 16.7298 106.991 16.1565L107.58 14.6451L104.1 5.78516H105.76L108.33 13.0816H108.384L110.847 5.78516H112.4L108.544 15.8959Z" fill="#E30613"/>
<path d="M118.772 2.08472H120.646L118.397 4.53423H117.326L118.772 2.08472ZM119.896 10.0587C118.772 10.8925 115.505 10.0587 115.505 12.2476C115.505 13.2378 116.308 13.5505 117.219 13.5505C119.147 13.5505 119.896 12.3518 119.896 11.5179V10.0587ZM122.252 14.645C121.985 14.8013 121.663 14.9056 121.235 14.9056C120.485 14.9056 120.003 14.4886 120.003 13.5505C119.2 14.5407 118.129 14.9056 116.898 14.9056C115.291 14.9056 114.006 14.1759 114.006 12.4039C114.006 10.3714 115.505 9.95442 117.005 9.64172C118.611 9.32902 119.95 9.43325 119.95 8.33879C119.95 7.03586 118.879 6.87951 117.969 6.87951C116.737 6.87951 115.827 7.24433 115.773 8.54726H114.327C114.434 6.35833 116.094 5.57657 118.076 5.57657C119.682 5.57657 121.396 5.94139 121.396 8.02608V12.6124C121.396 13.2899 121.396 13.6026 121.878 13.6026C122.038 13.6026 122.145 13.5505 122.306 13.4984V14.645H122.252Z" fill="#E30613"/>
<path d="M124.395 5.78499H125.733V7.66121H125.787C126.483 6.20193 127.447 5.5244 129 5.57652V7.14004C126.644 7.14004 125.84 8.44297 125.84 10.7361V14.697H124.395V5.78499Z" fill="#E30613"/>
<path d="M47.7656 19.3354H49.1579V24.4951L51.6212 21.8371H53.3347L50.925 24.2345L53.5489 28.4039H51.8889L49.9611 25.2247L49.1579 26.0586V28.4039H47.7656V19.3354Z" fill="black"/>
<path d="M58.8512 20.7949H57.4589V19.4398H58.8512V20.7949ZM55.424 19.3877H56.8163V20.7427H55.424V19.3877ZM57.084 27.4138C57.4053 27.4138 57.6731 27.3616 57.8873 27.2053C58.1015 27.0489 58.3157 26.8926 58.4228 26.6841C58.5834 26.4756 58.6905 26.2151 58.7441 25.9545C58.7976 25.6939 58.8512 25.3812 58.8512 25.1206C58.8512 24.86 58.7976 24.5473 58.7441 24.2867C58.6905 24.0261 58.5834 23.7655 58.4228 23.5571C58.2621 23.3486 58.1015 23.1401 57.8873 23.0359C57.6731 22.8796 57.4053 22.8274 57.084 22.8274C56.7628 22.8274 56.495 22.8796 56.2808 23.0359C56.0666 23.1923 55.8524 23.3486 55.7453 23.5571C55.5847 23.7655 55.4776 24.0261 55.424 24.2867C55.3705 24.5473 55.3169 24.86 55.3169 25.1206C55.3169 25.4333 55.3705 25.6939 55.424 25.9545C55.4776 26.2151 55.5847 26.4756 55.7453 26.6841C55.906 26.8926 56.0666 27.1011 56.2808 27.2053C56.5486 27.3616 56.8163 27.4138 57.084 27.4138ZM57.084 28.5603C56.6021 28.5603 56.1202 28.4561 55.7453 28.2997C55.3705 28.1434 54.9956 27.8828 54.7279 27.5701C54.4601 27.2574 54.2459 26.8926 54.0853 26.4756C53.9246 26.0587 53.8711 25.5896 53.8711 25.0685C53.8711 24.5473 53.9246 24.1304 54.0853 23.6613C54.2459 23.2444 54.4066 22.8796 54.7279 22.5668C54.9956 22.2541 55.3169 22.0457 55.7453 21.8372C56.1202 21.6809 56.6021 21.5766 57.084 21.5766C57.566 21.5766 58.0479 21.6809 58.4228 21.8372C58.7976 21.9936 59.1725 22.2541 59.4402 22.5668C59.708 22.8796 59.9222 23.2444 60.0828 23.6613C60.2434 24.0782 60.297 24.5473 60.297 25.0685C60.297 25.5896 60.2434 26.0587 60.0828 26.4756C59.9222 26.8926 59.7615 27.2574 59.4402 27.5701C59.1725 27.8828 58.8512 28.0913 58.4228 28.2997C58.0479 28.5082 57.6195 28.5603 57.084 28.5603Z" fill="black"/>
<path d="M61.4224 21.8371H62.7075V22.7752C62.9217 22.4104 63.1895 22.1498 63.5108 21.9414C63.8321 21.7329 64.2069 21.6287 64.6353 21.6287C65.3315 21.6287 65.8669 21.8371 66.2418 22.202C66.6166 22.5668 66.8308 23.1401 66.8308 23.8697V28.3518H65.4386V24.2345C65.4386 23.7134 65.3315 23.3485 65.1173 23.0879C64.9031 22.8795 64.6353 22.7231 64.2069 22.7231C63.9927 22.7231 63.7785 22.7752 63.5643 22.8795C63.4037 22.9837 63.243 23.0879 63.0824 23.2443C62.9753 23.4006 62.8682 23.6091 62.7611 23.8176C62.7075 24.0261 62.654 24.2345 62.654 24.4951V28.3518H61.2617V21.8371H61.4224Z" fill="black"/>
<path d="M67.6875 21.8372H69.1869L70.8469 26.7362L72.4534 21.8372H73.8992L71.4359 28.7688C71.3288 29.0815 71.2217 29.342 71.1147 29.6026C71.0076 29.8632 70.8469 30.1238 70.7398 30.3323C70.5792 30.5407 70.365 30.6971 70.1508 30.8013C69.9366 30.9056 69.6153 31.0098 69.2404 31.0098C68.9191 31.0098 68.5978 31.0098 68.2765 30.9577V29.7069C68.3836 29.7069 68.4907 29.759 68.5978 29.759C68.7049 29.759 68.812 29.8111 68.9191 29.8111C69.0798 29.8111 69.2404 29.8111 69.294 29.759C69.4011 29.7069 69.5082 29.6547 69.5617 29.5505C69.6153 29.4463 69.6688 29.3942 69.7224 29.2899C69.7759 29.1857 69.8295 29.0293 69.8295 28.9251L69.9901 28.4039L67.6875 21.8372Z" fill="black"/>
<path d="M74.0586 21.8372H75.558L77.1644 26.8925L78.7174 21.8372H80.1097L77.9141 28.4039H76.3612L74.0586 21.8372Z" fill="black"/>
<path d="M85.2498 24.5472C85.2498 24.3388 85.1962 24.0782 85.0891 23.8697C85.0356 23.6612 84.9285 23.4528 84.7678 23.2964C84.6607 23.1401 84.4465 23.0358 84.2859 22.9316C84.0717 22.8274 83.8575 22.7752 83.6433 22.7752C83.3755 22.7752 83.1613 22.8274 83.0007 22.9316C82.7865 23.0358 82.6258 23.1401 82.4652 23.2964C82.3046 23.4528 82.1975 23.6612 82.1439 23.8697C82.0368 24.0782 82.0368 24.2866 81.9833 24.5472H85.2498ZM82.0368 25.4853C82.0368 25.7459 82.0904 26.0065 82.1439 26.215C82.1975 26.4756 82.3046 26.684 82.4652 26.8404C82.6258 26.9967 82.7865 27.1531 83.0007 27.2573C83.2149 27.3616 83.4826 27.4137 83.7504 27.4137C84.1788 27.4137 84.5001 27.3094 84.7143 27.1531C84.982 26.9967 85.1427 26.684 85.2498 26.3192H86.5349C86.4814 26.684 86.3207 26.9967 86.1601 27.2573C85.9994 27.5179 85.7852 27.7785 85.5175 27.9348C85.2498 28.1433 84.982 28.2476 84.6607 28.3518C84.3394 28.456 84.0181 28.5081 83.6968 28.5081C83.2149 28.5081 82.7865 28.4039 82.4116 28.2476C82.0368 28.0912 81.7155 27.8306 81.4478 27.5179C81.18 27.2052 80.9658 26.8404 80.8587 26.4234C80.7516 26.0065 80.6445 25.5375 80.6445 25.0163C80.6445 24.5472 80.6981 24.1303 80.8587 23.7134C81.0194 23.2964 81.18 22.9316 81.4478 22.6189C81.7155 22.3062 82.0368 22.0456 82.4116 21.8892C82.7865 21.6808 83.2149 21.6287 83.6968 21.6287C84.1788 21.6287 84.6072 21.7329 85.0356 21.9414C85.4104 22.1498 85.7317 22.4625 85.9995 22.7752C86.2672 23.0879 86.4278 23.557 86.5885 23.9739C86.6956 24.443 86.7491 24.912 86.6956 25.3811H82.0368V25.4853Z" fill="black"/>
<path d="M88.7297 26.3192C88.7832 26.7362 88.9439 27.0489 89.2116 27.2052C89.4794 27.3616 89.8007 27.4658 90.1755 27.4658C90.2826 27.4658 90.4432 27.4658 90.6039 27.4137C90.7645 27.4137 90.9252 27.3616 91.0858 27.3094C91.2465 27.2573 91.3536 27.1531 91.4607 27.0489C91.5678 26.9446 91.6213 26.7883 91.5678 26.5798C91.5678 26.3713 91.5142 26.2671 91.3536 26.1107C91.2465 26.0065 91.0858 25.9023 90.8716 25.8502C90.6574 25.798 90.4432 25.6938 90.2291 25.6417C89.9613 25.5896 89.7471 25.5375 89.4794 25.4853C89.2116 25.4332 88.9974 25.329 88.7297 25.2769C88.5155 25.1726 88.3013 25.0684 88.0871 24.912C87.8729 24.7557 87.7658 24.5993 87.6587 24.3388C87.5516 24.1303 87.498 23.8176 87.498 23.5049C87.498 23.1401 87.6051 22.8274 87.7658 22.6189C87.9264 22.3583 88.1406 22.202 88.4084 22.0456C88.6761 21.8892 88.9439 21.785 89.2652 21.7329C89.5865 21.6808 89.8542 21.6287 90.1755 21.6287C90.4968 21.6287 90.8181 21.6808 91.0858 21.7329C91.4071 21.785 91.6213 21.9414 91.8891 22.0977C92.1033 22.2541 92.3175 22.4625 92.4781 22.7231C92.6388 22.9837 92.7459 23.2964 92.7994 23.6612H91.3536C91.3 23.2964 91.1394 23.0879 90.9252 22.9837C90.711 22.8795 90.3897 22.8274 90.122 22.8274C90.0149 22.8274 89.9078 22.8274 89.8007 22.8274C89.6936 22.8274 89.5329 22.8795 89.4258 22.9316C89.3187 22.9837 89.2116 23.0358 89.1045 23.1401C88.9974 23.2443 88.9974 23.3485 88.9974 23.5049C88.9974 23.6612 89.051 23.8176 89.1581 23.9218C89.2652 24.0261 89.4258 24.1303 89.64 24.1824C89.8542 24.2345 90.0684 24.3388 90.2826 24.3909C90.5503 24.443 90.7645 24.4951 91.0323 24.5472C91.3 24.5993 91.5142 24.7036 91.782 24.7557C92.0497 24.8599 92.2639 24.9642 92.4246 25.1205C92.6388 25.2769 92.7459 25.4332 92.9065 25.6417C93.0136 25.8502 93.0672 26.1107 93.0672 26.4756C93.0672 26.8404 92.9601 27.2052 92.7994 27.4658C92.6388 27.7264 92.4246 27.9348 92.1568 28.1433C91.8891 28.2997 91.5678 28.456 91.2465 28.5081C90.9252 28.5603 90.6039 28.6124 90.2826 28.6124C89.9078 28.6124 89.5329 28.5603 89.2116 28.456C88.8903 28.3518 88.569 28.1954 88.3548 28.0391C88.0871 27.8306 87.9264 27.6221 87.7658 27.3094C87.6051 27.0489 87.5516 26.684 87.5516 26.3192H88.7297Z" fill="black"/>
<path d="M98.8507 25.1205C98.8507 24.8078 98.7971 24.5472 98.7436 24.2345C98.69 23.9739 98.5829 23.7133 98.4223 23.5048C98.2616 23.2964 98.101 23.14 97.8868 22.9837C97.6726 22.8273 97.4048 22.7752 97.1371 22.7752C96.5481 22.7752 96.1197 22.9837 95.7984 23.4006C95.4771 23.8175 95.37 24.3908 95.37 25.0683C95.37 25.3811 95.4235 25.6938 95.4771 26.0065C95.5306 26.267 95.6913 26.5276 95.7984 26.7361C95.959 26.9446 96.1197 27.1009 96.3339 27.2052C96.5481 27.3094 96.8158 27.3615 97.0836 27.3615C97.4048 27.3615 97.6726 27.3094 97.8868 27.153C98.101 26.9967 98.2616 26.8403 98.4223 26.6319C98.5829 26.4234 98.69 26.1628 98.7436 25.9022C98.8507 25.6938 98.8507 25.4332 98.8507 25.1205ZM94.0312 19.3354H95.4235V22.671C95.5306 22.5146 95.6377 22.3583 95.7984 22.254C95.959 22.1498 96.0661 21.9934 96.2268 21.9413C96.3874 21.8371 96.5481 21.785 96.7623 21.7328C96.9229 21.6807 97.1371 21.6807 97.2977 21.6807C97.7797 21.6807 98.2081 21.785 98.5829 21.9413C98.9578 22.0977 99.2791 22.3583 99.4933 22.671C99.761 22.9837 99.9217 23.3485 100.029 23.7654C100.136 24.1824 100.189 24.6514 100.189 25.1205C100.189 25.5374 100.136 26.0065 100.029 26.4234C99.9217 26.8403 99.761 27.2052 99.5468 27.5179C99.3326 27.8306 99.0649 28.0912 98.69 28.2996C98.3687 28.5081 97.9403 28.5602 97.5119 28.5602C97.2978 28.5602 97.0835 28.5602 96.8694 28.5081C96.6552 28.456 96.441 28.4039 96.2803 28.3517C96.0661 28.2475 95.9055 28.1433 95.7448 28.039C95.5842 27.8827 95.4771 27.7263 95.37 27.5179V28.4039H94.0848V19.3354H94.0312Z" fill="black"/>
<path d="M104.26 27.4135C104.581 27.4135 104.849 27.3614 105.063 27.2051C105.277 27.0487 105.491 26.8924 105.599 26.6839C105.759 26.4754 105.866 26.2149 105.92 25.9543C105.973 25.6937 106.027 25.381 106.027 25.1204C106.027 24.8598 105.973 24.5471 105.92 24.2865C105.866 24.0259 105.759 23.7653 105.599 23.5569C105.438 23.3484 105.277 23.1399 105.063 23.0357C104.849 22.8793 104.581 22.8272 104.26 22.8272C103.939 22.8272 103.671 22.8793 103.457 23.0357C103.242 23.1921 103.028 23.3484 102.921 23.5569C102.76 23.7653 102.653 24.0259 102.6 24.2865C102.546 24.5471 102.493 24.8598 102.493 25.1204C102.493 25.4331 102.546 25.6937 102.6 25.9543C102.653 26.2149 102.76 26.4754 102.921 26.6839C103.082 26.8924 103.242 27.1008 103.457 27.2051C103.724 27.3614 103.992 27.4135 104.26 27.4135ZM104.26 28.5601C103.778 28.5601 103.296 28.4559 102.921 28.2995C102.546 28.1432 102.171 27.8826 101.904 27.5699C101.636 27.2572 101.422 26.8924 101.261 26.4754C101.1 26.0585 101.047 25.5894 101.047 25.0683C101.047 24.5471 101.1 24.1302 101.261 23.6611C101.422 23.2442 101.582 22.8793 101.904 22.5666C102.171 22.2539 102.493 22.0455 102.921 21.837C103.296 21.6807 103.778 21.5764 104.26 21.5764C104.742 21.5764 105.224 21.6807 105.599 21.837C105.973 21.9934 106.348 22.2539 106.616 22.5666C106.884 22.8793 107.098 23.2442 107.259 23.6611C107.419 24.078 107.473 24.5471 107.473 25.0683C107.473 25.5894 107.419 26.0585 107.259 26.4754C107.098 26.8924 106.937 27.2572 106.616 27.5699C106.348 27.8826 106.027 28.0911 105.599 28.2995C105.224 28.508 104.795 28.5601 104.26 28.5601Z" fill="black"/>
<path d="M110.045 19.3354H108.652V28.4039H110.045V19.3354Z" fill="black"/>
<path d="M110.9 21.8371H111.918V19.8567H113.31V21.8371H114.542V22.9316H113.31V26.4235C113.31 26.5798 113.31 26.6841 113.31 26.8404C113.31 26.9446 113.364 27.0489 113.417 27.101C113.471 27.1531 113.524 27.2573 113.631 27.2573C113.738 27.3095 113.846 27.3095 114.006 27.3095C114.113 27.3095 114.22 27.3095 114.274 27.3095C114.328 27.3095 114.488 27.3095 114.542 27.2573V28.3518C114.381 28.3518 114.22 28.4039 114.113 28.4039C113.953 28.4039 113.792 28.4039 113.685 28.4039C113.31 28.4039 113.042 28.3518 112.828 28.2997C112.614 28.2476 112.453 28.1433 112.293 27.987C112.186 27.8306 112.078 27.6743 112.025 27.4658C111.971 27.2573 111.971 26.9968 111.971 26.7362V22.9316H110.954V21.8371H110.9Z" fill="black"/>
<path d="M118.879 27.3615C119.2 27.3615 119.468 27.3094 119.682 27.1531C119.896 26.9967 120.111 26.8404 120.218 26.6319C120.378 26.4234 120.485 26.1629 120.539 25.9023C120.593 25.6417 120.646 25.329 120.646 25.0684C120.646 24.8078 120.593 24.4951 120.539 24.2345C120.485 23.9739 120.378 23.7133 120.218 23.5049C120.057 23.2964 119.896 23.0879 119.682 22.9837C119.468 22.8273 119.2 22.7752 118.879 22.7752C118.558 22.7752 118.29 22.8273 118.076 22.9837C117.862 23.14 117.647 23.2964 117.54 23.5049C117.38 23.7133 117.272 23.9739 117.219 24.2345C117.165 24.4951 117.112 24.8078 117.112 25.0684C117.112 25.3811 117.165 25.6417 117.219 25.9023C117.272 26.1629 117.38 26.4234 117.54 26.6319C117.701 26.8404 117.862 27.0488 118.076 27.1531C118.29 27.2573 118.558 27.3615 118.879 27.3615ZM118.879 28.5081C118.397 28.5081 117.915 28.4039 117.54 28.2475C117.165 28.0912 116.791 27.8306 116.523 27.5179C116.255 27.2052 116.041 26.8404 115.88 26.4234C115.72 26.0065 115.666 25.5374 115.666 25.0163C115.666 24.4951 115.72 24.0782 115.88 23.6091C116.041 23.1922 116.202 22.8273 116.523 22.5146C116.791 22.2019 117.112 21.9935 117.54 21.785C117.915 21.6286 118.397 21.5244 118.879 21.5244C119.361 21.5244 119.843 21.6286 120.218 21.785C120.593 21.9414 120.967 22.2019 121.235 22.5146C121.503 22.8273 121.717 23.1922 121.878 23.6091C122.038 24.026 122.092 24.4951 122.092 25.0163C122.092 25.5374 122.038 26.0065 121.878 26.4234C121.717 26.8404 121.556 27.2052 121.235 27.5179C120.967 27.8306 120.646 28.0391 120.218 28.2475C119.843 28.4039 119.414 28.5081 118.879 28.5081Z" fill="black"/>
<path d="M123.217 19.4397V28.5081H124.609V26.1628L125.412 25.2768L127.34 28.5081H129L126.376 24.3387L128.786 21.9413H127.072L124.609 24.5993V19.4397H123.217Z" fill="black"/>
</svg>
