<svg width="126" height="35" viewBox="0 0 126 35" fill="none" xmlns="http://www.w3.org/2000/svg">
<path d="M46.6732 23.7482H48.0841V24.7334C48.5544 24.0074 49.286 23.5408 50.1744 23.5408C51.6376 23.5408 52.526 24.3185 52.526 25.8223V30.3852H51.0628V26.1852C51.0105 25.1482 50.6447 24.6815 49.7564 24.6815C48.7635 24.6815 48.1364 25.4593 48.1364 26.4445V30.3852H46.6732V23.7482Z" fill="black"/>
<path d="M59.7376 28.9334C59.7376 29.2964 59.7898 29.4519 60.1034 29.4519H60.2601C60.3124 29.4519 60.3647 29.4519 60.4692 29.4519V30.489C60.2601 30.5408 59.7898 30.6445 59.5285 30.6445C58.9014 30.6445 58.4834 30.4371 58.3789 29.8149C57.804 30.3853 56.8634 30.6445 56.0795 30.6445C54.8776 30.6445 53.7802 30.0223 53.7802 28.726C53.7802 27.0668 55.1389 26.8075 56.3408 26.6519C57.4382 26.4445 58.3266 26.6001 58.3266 25.7186C58.3266 24.9408 57.5428 24.8371 56.9157 24.8371C56.0795 24.8371 55.5047 25.1482 55.4525 25.8742H53.9892C54.0938 24.1631 55.557 23.6445 57.0202 23.6445C58.3266 23.6445 59.6853 24.1631 59.6853 25.5631V28.9334H59.7376ZM58.2221 27.0668C57.7518 27.3779 57.0724 27.326 56.3931 27.4816C55.766 27.5853 55.1912 27.7927 55.1912 28.5705C55.1912 29.2445 56.0273 29.4001 56.5499 29.4001C57.177 29.4001 58.2221 29.089 58.2221 28.1556V27.0668Z" fill="black"/>
<path d="M67.5239 30.0742C67.5239 32.0964 66.3743 33.0816 64.2317 33.0816C62.873 33.0816 61.3576 32.5631 61.253 31.0075H62.7162C62.873 31.8371 63.5524 31.9927 64.3362 31.9927C65.5381 31.9927 66.0607 31.3705 66.0607 30.2816V29.2445C65.6427 29.9705 64.8588 30.4371 64.0749 30.4371C61.9324 30.4371 61.044 28.8297 61.044 26.9631C61.044 25.2001 62.1937 23.6445 64.0749 23.6445C64.9111 23.6445 65.6949 23.9556 66.0607 24.7334V23.8001H67.5239V30.0742ZM66.0607 26.9631C66.0607 25.8223 65.5381 24.7853 64.284 24.7853C62.9775 24.7853 62.5072 25.9779 62.5072 27.1186C62.5072 28.2075 63.0298 29.2964 64.284 29.2964C65.5381 29.2445 66.0607 28.1038 66.0607 26.9631Z" fill="black"/>
<path d="M68.2555 23.748H69.8755L71.6 28.7258L73.2722 23.748H74.8399L72.2271 30.748C71.7567 31.9406 71.3909 33.0295 69.8755 33.0295C69.5097 33.0295 69.1961 33.0295 68.8303 32.9777V31.7332C69.0916 31.7851 69.3006 31.8369 69.5097 31.8369C70.189 31.8369 70.3981 31.474 70.5548 30.9036L70.7116 30.3851L68.2555 23.748Z" fill="black"/>
<path d="M75.7806 21.2593H77.2438V26.4445L79.9089 23.7482H81.7379L79.1773 26.1852L81.9992 30.3852H80.2225L78.1844 27.1704L77.296 28V30.3852H75.8328V21.2593H75.7806Z" fill="black"/>
<path d="M83.8283 27.4816C83.8283 28.5186 84.4031 29.4519 85.605 29.4519C86.4934 29.4519 86.9637 29.089 87.225 28.3631H88.636C88.3224 29.8149 87.0682 30.6445 85.605 30.6445C83.5147 30.6445 82.3128 29.1927 82.3128 27.1705C82.3128 25.3038 83.567 23.6445 85.5528 23.6445C87.6431 23.6445 88.9495 25.5112 88.7405 27.5334H83.8283V27.4816ZM87.2773 26.4964C87.225 25.563 86.5979 24.7334 85.605 24.7334C84.5599 24.7334 83.8805 25.5112 83.8283 26.4964H87.2773Z" fill="black"/>
<path d="M89.8901 23.7481H91.3011V25.0444C91.4579 24.3185 92.3462 23.5925 93.2346 23.5925C93.6004 23.5925 93.6527 23.5925 93.8094 23.6444V25.0444C93.6004 24.9925 93.3914 24.9925 93.1824 24.9925C92.1895 24.9925 91.3533 25.7703 91.3533 27.274V30.437H89.8901V23.7481Z" fill="black"/>
<path d="M54.9821 5.08154H51.4808L49.8608 7.67414H52.1079L54.9821 5.08154Z" fill="#4971FF"/>
<path d="M55.3479 11.8222C55.3479 10.1111 55.4001 8.34814 51.2718 8.34814C49.2337 8.34814 46.9344 8.76296 46.8299 11.2518H49.9131C49.9131 10.8889 50.1221 10.3185 51.1673 10.3185C51.6899 10.3185 52.2647 10.5259 52.2647 11.1481C52.2647 11.7185 51.7944 11.8741 51.3763 11.9259C49.7041 12.2889 46.5164 12.1333 46.5164 14.9852C46.5164 16.8518 47.8751 17.6815 49.5473 17.6815C50.5924 17.6815 51.5853 17.4222 52.3169 16.6444H52.3692C52.3692 16.9037 52.4215 17.2148 52.4737 17.4741H55.8182C55.4524 16.9037 55.4001 16.1778 55.4001 15.5037V11.8222H55.3479ZM52.1602 14.3111C52.1079 15.2444 51.5331 15.7111 50.8015 15.7111C50.2266 15.7111 49.7563 15.2963 49.7563 14.8815C49.7563 14.2593 50.1221 14.1037 50.8537 13.8963C51.3241 13.7926 51.7421 13.6889 52.1602 13.4815V14.3111Z" fill="#4971FF"/>
<path d="M61.253 5.23706H57.9608V17.4741H61.253V5.23706Z" fill="#4971FF"/>
<path d="M68.3077 8.34814C65.0678 8.34814 63.6046 10.5778 63.6046 13.0148C63.6046 15.5037 65.0678 17.6815 68.3077 17.6815C71.5477 17.6815 73.0109 15.4518 73.0109 13.0148C73.0109 10.5778 71.5477 8.34814 68.3077 8.34814ZM68.3077 15.2444C67.0536 15.2444 66.8968 14 66.8968 13.0148C66.8968 12.0815 67.0536 10.837 68.3077 10.837C69.5619 10.837 69.7187 12.0815 69.7187 13.0148C69.7187 13.9481 69.5619 15.2444 68.3077 15.2444Z" fill="#4971FF"/>
<path d="M86.5456 8.34814C84.4031 8.34814 83.7237 9.64444 83.6192 9.74814C83.2012 8.86666 82.2083 8.34814 81.2676 8.34814C80.0657 8.34814 79.1251 8.71111 78.4457 9.74814H78.3935V8.55555H75.2057V17.4741H78.498V12.6518C78.498 11.7185 78.7593 11.0444 79.5954 11.0444C80.5883 11.0444 80.6928 11.8222 80.6928 12.6518V17.4741H83.985V12.6518C83.985 11.7185 84.2463 11.0444 85.0824 11.0444C86.0753 11.0444 86.1798 11.8222 86.1798 12.6518V17.4741H89.4721V11.3556C89.5243 9.9037 88.7404 8.34814 86.5456 8.34814Z" fill="#4971FF"/>
<path d="M98.3558 9.852C97.8332 8.86681 96.8403 8.40015 95.7952 8.40015C92.8165 8.40015 91.8236 10.9927 91.8236 13.0668C91.8236 15.5038 93.0778 17.5779 95.6384 17.5779C96.7358 17.5779 97.8332 17.0594 98.3035 15.9705H98.3558V16.5409C98.3558 18.5113 97.6242 19.9113 95.7952 19.9113C94.9068 19.9113 93.6004 19.4964 93.5481 18.4594H92.1371C92.2417 20.3779 94.0707 21.052 95.6907 21.052C98.4081 21.052 99.6622 19.6001 99.6622 16.6964V8.60755H98.3558V9.852ZM95.6907 16.2816C93.8094 16.2816 93.2868 14.5187 93.2868 12.9113C93.2868 11.2001 94.0184 9.69644 95.8474 9.69644C97.6242 9.69644 98.3035 11.3038 98.3035 12.8594C98.2513 14.5187 97.5719 16.2816 95.6907 16.2816Z" fill="#4971FF"/>
<path d="M105.829 15.8667L103.268 8.60742H101.648L105.045 17.4222L104.47 18.9259C104.209 19.4445 103.895 19.7556 103.32 19.7556C103.059 19.7556 102.745 19.6519 102.484 19.5482V20.8963C102.798 21 103.111 21.0519 103.477 21.0519C104.731 21.0519 105.306 20.3778 105.985 18.6667L109.748 8.60742H108.233L105.829 15.8667Z" fill="#4971FF"/>
<path d="M117.796 4.92603H115.967L114.556 7.36306H115.601L117.796 4.92603Z" fill="#4971FF"/>
<path d="M118.475 15.4001V10.8372C118.475 8.76311 116.803 8.40015 115.235 8.40015C113.301 8.40015 111.681 9.17792 111.577 11.3557H112.988C113.04 10.0594 113.929 9.69644 115.13 9.69644C116.019 9.69644 117.064 9.90385 117.064 11.1483C117.064 12.289 115.705 12.1335 114.19 12.4446C112.727 12.7038 111.263 13.1705 111.263 15.1927C111.263 16.9557 112.518 17.6816 114.085 17.6816C115.287 17.6816 116.332 17.2668 117.116 16.3335C117.116 17.3187 117.587 17.6816 118.318 17.6816C118.736 17.6816 119.102 17.5779 119.311 17.4224V16.2816C119.154 16.3335 118.998 16.3853 118.893 16.3853C118.475 16.3853 118.475 16.0742 118.475 15.4001ZM117.064 14.3631C117.064 15.1927 116.28 16.3853 114.451 16.3853C113.563 16.3853 112.779 16.0224 112.779 15.089C112.779 12.9113 115.967 13.7409 117.064 12.9113V14.3631Z" fill="#4971FF"/>
<path d="M122.812 10.4743L122.76 8.60764H121.454V17.4743H122.865V13.5336C122.865 11.2521 123.701 9.95579 125.948 9.95579V8.40024C124.432 8.34838 123.492 9.02246 122.812 10.4743Z" fill="#4971FF"/>
<path d="M6.12124 16.2816H33.1906C33.7132 16.2816 34.1835 15.8149 34.1835 15.2964C34.1835 14.726 33.7655 14.3112 33.1906 14.3112H6.12124C3.61288 14.2594 1.52258 16.3853 1.52258 18.9779C1.52258 21.5705 3.56063 23.6964 6.12124 23.6964H33.1906C33.7132 23.6964 34.1835 23.2298 34.1835 22.7112C34.1835 22.1409 33.7655 21.726 33.1906 21.726H6.12124C5.33738 21.726 4.65803 21.3631 4.13546 20.7927H32.8771C32.8248 20.689 32.7726 20.5335 32.7203 20.3779H3.87417C3.66514 20.0149 3.56063 19.652 3.50837 19.2372H32.459C32.459 19.1853 32.459 19.0816 32.459 19.0298C32.459 18.9779 32.459 18.8742 32.459 18.8223H3.50837C3.56063 18.4075 3.66514 18.0446 3.87417 17.6816H32.7203C32.7726 17.526 32.8248 17.3705 32.8771 17.2668H4.18772C4.65803 16.6446 5.33738 16.2816 6.12124 16.2816Z" fill="#4971FF"/>
<path d="M29.5849 25.5112H2.51548C1.9929 25.5112 1.52258 25.9779 1.52258 26.4964C1.52258 27.0668 1.94064 27.4816 2.51548 27.4816H29.5849C30.3687 27.4816 31.0481 27.8446 31.5707 28.4149H2.82902C2.88128 28.5186 2.93354 28.6742 2.98579 28.8297H31.8319C32.041 29.1927 32.1455 29.5557 32.1977 29.9705H3.24708C3.24708 30.0223 3.24708 30.126 3.24708 30.1779C3.24708 30.2297 3.24708 30.3334 3.24708 30.3853H32.1977C32.1455 30.8001 32.041 31.1631 31.8319 31.526H3.03805C2.98579 31.6816 2.93354 31.8372 2.88128 31.9409H31.5707C31.1003 32.5112 30.3687 32.8742 29.5849 32.8742H2.51548C1.9929 32.8742 1.52258 33.3409 1.52258 33.8594C1.52258 34.4297 1.94064 34.8446 2.51548 34.8446H29.5849C32.0932 34.8446 34.1835 32.7186 34.1835 30.126C34.1835 27.6372 32.1455 25.5112 29.5849 25.5112Z" fill="#4971FF"/>
<path d="M33.5565 12.4444L18.7153 3.2666L3.87421 12.4444H4.8671L17.3566 4.71845C14.9005 7.10364 9.77931 10.6814 6.33031 12.4444H7.42772C10.8245 10.5777 15.6844 7.15549 18.036 4.82216C16.6773 7.10364 12.4444 10.6814 8.83867 12.4444H9.93608C13.5419 10.4222 17.6702 6.89623 18.7153 4.5629C19.7605 6.89623 23.8888 10.4222 27.4424 12.3925H28.5398C24.934 10.6296 20.7534 7.05179 19.3947 4.7703C21.7463 7.15549 26.6062 10.5259 30.003 12.4444H31.1004C27.6514 10.6814 22.5301 7.10364 20.074 4.71845L32.5636 12.4444H33.5565Z" fill="#4971FF"/>
<path d="M35.9088 10.4222L19.2386 0.155556C19.2386 0.155556 19.1864 0.155556 19.1864 0.103704C19.1341 0.103704 19.1341 0.0518519 19.0818 0.0518519C19.0296 0.0518519 19.0296 0.0518519 18.9773 0C18.9251 0 18.9251 0 18.8728 0C18.8206 0 18.8206 0 18.7683 0C18.7683 0 18.7683 0 18.716 0C18.6638 0 18.6638 0 18.6115 0C18.5593 0 18.5593 0 18.507 0C18.4548 0 18.4548 0 18.4025 0.0518519C18.3502 0.0518519 18.3502 0.0518519 18.298 0.103704C18.2457 0.103704 18.2457 0.155556 18.1935 0.155556C18.1935 0.155556 18.1412 0.155556 18.1412 0.207407L1.47105 10.4222C1.00074 10.7333 0.843964 11.4074 1.15751 11.8741C1.36654 12.1852 1.68008 12.3407 2.04589 12.3407C2.25492 12.3407 2.41169 12.2889 2.62072 12.1852L18.716 2.28148L34.8114 12.237C34.9681 12.3407 35.1772 12.3926 35.3862 12.3926C35.752 12.3926 36.0655 12.237 36.2746 11.9259C36.5881 11.4074 36.4313 10.7333 35.9088 10.4222Z" fill="#4971FF"/>
</svg>
