<svg width="148" height="42" viewBox="0 0 148 42" fill="none" xmlns="http://www.w3.org/2000/svg">
<path d="M54.1038 28.1285H55.775V29.2954C56.332 28.4356 57.1986 27.8828 58.2508 27.8828C59.9839 27.8828 61.0361 28.804 61.0361 30.5851V35.9897H59.3031V31.015C59.2412 29.7867 58.8079 29.234 57.7557 29.234C56.5796 29.234 55.8369 30.1552 55.8369 31.3221V35.9897H54.1038V28.1285Z" fill="white"/>
<path d="M69.5778 34.27C69.5778 34.6999 69.6397 34.8841 70.0111 34.8841H70.1968C70.2587 34.8841 70.3206 34.8841 70.4444 34.8841V36.1125C70.1968 36.1739 69.6397 36.2967 69.3302 36.2967C68.5875 36.2967 68.0923 36.051 67.9685 35.3141C67.2877 35.9896 66.1735 36.2967 65.2451 36.2967C63.8215 36.2967 62.5217 35.5597 62.5217 34.0243C62.5217 32.059 64.131 31.752 65.5546 31.5677C66.8544 31.3221 67.9066 31.5063 67.9066 30.4622C67.9066 29.541 66.9782 29.4182 66.2354 29.4182C65.2451 29.4182 64.5642 29.7867 64.5023 30.6465H62.7693C62.893 28.6198 64.6261 28.0056 66.3592 28.0056C67.9066 28.0056 69.5159 28.6198 69.5159 30.278V34.27H69.5778ZM67.7828 32.059C67.2258 32.4275 66.4211 32.3661 65.6165 32.5504C64.8737 32.6732 64.1929 32.9189 64.1929 33.8401C64.1929 34.6385 65.1832 34.8227 65.8022 34.8227C66.5449 34.8227 67.7828 34.4542 67.7828 33.3488V32.059Z" fill="white"/>
<path d="M78.8003 35.6211C78.8003 38.0163 77.4386 39.1832 74.9008 39.1832C73.2915 39.1832 71.4966 38.5691 71.3728 36.7266H73.1059C73.2915 37.7093 74.0962 37.8935 75.0246 37.8935C76.4482 37.8935 77.0672 37.1565 77.0672 35.8668V34.6385C76.572 35.4983 75.6436 36.051 74.7151 36.051C72.1774 36.051 71.1252 34.1472 71.1252 31.9362C71.1252 29.8481 72.4869 28.0056 74.7151 28.0056C75.7055 28.0056 76.6339 28.3741 77.0672 29.2953V28.1899H78.8003V35.6211ZM77.0672 31.9362C77.0672 30.5851 76.4482 29.3568 74.9627 29.3568C73.4153 29.3568 72.8583 30.7693 72.8583 32.1205C72.8583 33.4102 73.4772 34.6999 74.9627 34.6999C76.4482 34.6385 77.0672 33.2873 77.0672 31.9362Z" fill="white"/>
<path d="M79.6668 28.1282H81.5856L83.6282 34.0241L85.6089 28.1282H87.4657L84.3709 36.4193C83.8139 37.8318 83.3806 39.1215 81.5856 39.1215C81.1523 39.1215 80.781 39.1215 80.3477 39.0601V37.5862C80.6572 37.6476 80.9048 37.709 81.1523 37.709C81.957 37.709 82.2046 37.2791 82.3903 36.6035L82.5759 35.9894L79.6668 28.1282Z" fill="white"/>
<path d="M88.5799 25.1804H90.3129V31.322L93.4696 28.1284H95.636L92.6031 31.0149L95.9455 35.9895H93.841L91.4271 32.1818L90.3748 33.1644V35.9895H88.6418V25.1804H88.5799Z" fill="white"/>
<path d="M98.1118 32.5504C98.1118 33.7787 98.7927 34.8841 100.216 34.8841C101.269 34.8841 101.826 34.4542 102.135 33.5944H103.806C103.435 35.3141 101.949 36.2967 100.216 36.2967C97.7404 36.2967 96.3168 34.5771 96.3168 32.1819C96.3168 29.9709 97.8023 28.0056 100.154 28.0056C102.63 28.0056 104.178 30.2166 103.93 32.6118H98.1118V32.5504ZM102.197 31.3835C102.135 30.278 101.392 29.2953 100.216 29.2953C98.9784 29.2953 98.1737 30.2166 98.1118 31.3835H102.197Z" fill="white"/>
<path d="M105.292 28.1281H106.963V29.6635C107.149 28.8037 108.201 27.9438 109.253 27.9438C109.686 27.9438 109.748 27.9438 109.934 28.0053V29.6635C109.686 29.6021 109.439 29.6021 109.191 29.6021C108.015 29.6021 107.025 30.5233 107.025 32.3043V36.0507H105.292V28.1281Z" fill="white"/>
<path d="M63.9453 6.0188H59.7982L57.8795 9.08957H60.541L63.9453 6.0188Z" fill="white"/>
<path d="M64.3785 14.0025C64.3785 11.9758 64.4404 9.8877 59.5506 9.8877C57.1367 9.8877 54.4133 10.379 54.2895 13.327H57.9413C57.9413 12.8971 58.1889 12.2215 59.4268 12.2215C60.0458 12.2215 60.7266 12.4671 60.7266 13.2041C60.7266 13.8797 60.1696 14.0639 59.6744 14.1254C57.6937 14.5553 53.9181 14.371 53.9181 17.7489C53.9181 19.9598 55.5274 20.9425 57.5081 20.9425C58.746 20.9425 59.922 20.6354 60.7885 19.7142H60.8504C60.8504 20.0212 60.9123 20.3897 60.9742 20.6968H64.9356C64.5023 20.0212 64.4404 19.1614 64.4404 18.363V14.0025H64.3785ZM60.6029 16.9505C60.541 18.056 59.8601 18.6087 58.9936 18.6087C58.3127 18.6087 57.7556 18.1174 57.7556 17.626C57.7556 16.8891 58.1889 16.7048 59.0555 16.4591C59.6125 16.3363 60.1077 16.2135 60.6029 15.9678V16.9505Z" fill="white"/>
<path d="M71.3728 6.20312H67.4733V20.6972H71.3728V6.20312Z" fill="white"/>
<path d="M79.7287 9.8877C75.8912 9.8877 74.1581 12.5286 74.1581 15.4151C74.1581 18.363 75.8912 20.9425 79.7287 20.9425C83.5663 20.9425 85.2994 18.3016 85.2994 15.4151C85.2994 12.5286 83.5663 9.8877 79.7287 9.8877ZM79.7287 18.056C78.2432 18.056 78.0575 16.582 78.0575 15.4151C78.0575 14.3096 78.2432 12.8356 79.7287 12.8356C81.2142 12.8356 81.3999 14.3096 81.3999 15.4151C81.3999 16.5206 81.2142 18.056 79.7287 18.056Z" fill="white"/>
<path d="M101.33 9.8877C98.7927 9.8877 97.988 11.4231 97.8642 11.5459C97.3691 10.5018 96.1931 9.8877 95.0789 9.8877C93.6553 9.8877 92.5412 10.3176 91.7365 11.5459H91.6746V10.1334H87.899V20.6968H91.7984V14.9852C91.7984 13.8797 92.1079 13.0813 93.0982 13.0813C94.2743 13.0813 94.3981 14.0025 94.3981 14.9852V20.6968H98.2975V14.9852C98.2975 13.8797 98.607 13.0813 99.5973 13.0813C100.773 13.0813 100.897 14.0025 100.897 14.9852V20.6968H104.797V13.4498C104.858 11.7302 103.93 9.8877 101.33 9.8877Z" fill="white"/>
<path d="M115.319 11.6691C114.7 10.5022 113.524 9.94946 112.286 9.94946C108.758 9.94946 107.582 13.0202 107.582 15.4769C107.582 18.3634 109.067 20.82 112.1 20.82C113.4 20.82 114.7 20.2058 115.257 18.9161H115.319V19.5917C115.319 21.9255 114.452 23.5837 112.286 23.5837C111.234 23.5837 109.686 23.0924 109.625 21.8641H107.953C108.077 24.1364 110.243 24.9348 112.162 24.9348C115.381 24.9348 116.866 23.2152 116.866 19.7759V10.1951H115.319V11.6691ZM112.162 19.2846C109.934 19.2846 109.315 17.1965 109.315 15.2926C109.315 13.2659 110.182 11.4848 112.348 11.4848C114.452 11.4848 115.257 13.3887 115.257 15.2312C115.195 17.1965 114.39 19.2846 112.162 19.2846Z" fill="white"/>
<path d="M124.17 18.793L121.137 10.1948H119.218L123.242 20.6355L122.561 22.4165C122.251 23.0307 121.88 23.3991 121.199 23.3991C120.89 23.3991 120.518 23.2763 120.209 23.1535V24.7503C120.58 24.8731 120.951 24.9345 121.385 24.9345C122.87 24.9345 123.551 24.1361 124.356 22.1094L128.812 10.1948H127.017L124.17 18.793Z" fill="white"/>
<path d="M138.344 5.83447H136.178L134.507 8.721H135.745L138.344 5.83447Z" fill="white"/>
<path d="M139.149 18.2406V12.836C139.149 10.3794 137.168 9.94946 135.311 9.94946C133.021 9.94946 131.102 10.8707 130.979 13.4501H132.65C132.712 11.9148 133.764 11.4848 135.188 11.4848C136.24 11.4848 137.478 11.7305 137.478 13.2045C137.478 14.5556 135.868 14.3714 134.073 14.7399C132.34 15.0469 130.607 15.5997 130.607 17.9949C130.607 20.083 132.093 20.9428 133.95 20.9428C135.373 20.9428 136.611 20.4515 137.54 19.346C137.54 20.5129 138.097 20.9428 138.963 20.9428C139.458 20.9428 139.892 20.82 140.139 20.6358V19.2846C139.954 19.346 139.768 19.4074 139.644 19.4074C139.149 19.4074 139.149 19.039 139.149 18.2406ZM137.478 17.0122C137.478 17.9949 136.549 19.4074 134.383 19.4074C133.331 19.4074 132.402 18.9775 132.402 17.8721C132.402 15.2926 136.178 16.2753 137.478 15.2926V17.0122Z" fill="white"/>
<path d="M144.286 12.4062L144.224 10.1952H142.677V20.6973H144.348V16.0297C144.348 13.3274 145.338 11.792 148 11.792V9.94958C146.205 9.88816 145.091 10.6866 144.286 12.4062Z" fill="white"/>
<path d="M6.07246 19.2846H38.1346C38.7535 19.2846 39.3106 18.7319 39.3106 18.1177C39.3106 17.4421 38.8154 16.9508 38.1346 16.9508H6.07246C3.10145 16.8894 0.62561 19.4074 0.62561 22.4782C0.62561 25.549 3.03955 28.067 6.07246 28.067H38.1346C38.7535 28.067 39.3106 27.5143 39.3106 26.9001C39.3106 26.2245 38.8154 25.7332 38.1346 25.7332H6.07246C5.14402 25.7332 4.33937 25.3033 3.72041 24.6277H37.7632C37.7013 24.5049 37.6394 24.3207 37.5775 24.1364H3.41093C3.16335 23.7065 3.03955 23.2766 2.97766 22.7853H37.268C37.268 22.7239 37.268 22.601 37.268 22.5396C37.268 22.4782 37.268 22.3554 37.268 22.294H2.97766C3.03955 21.8026 3.16335 21.3727 3.41093 20.9428H37.5775C37.6394 20.7586 37.7013 20.5743 37.7632 20.4515H3.78231C4.33937 19.7145 5.14402 19.2846 6.07246 19.2846Z" fill="white"/>
<path d="M33.8637 30.2166H1.80163C1.18267 30.2166 0.62561 30.7693 0.62561 31.3834C0.62561 32.059 1.12078 32.5503 1.80163 32.5503H33.8637C34.7922 32.5503 35.5968 32.9802 36.2158 33.6558H2.17301C2.23491 33.7786 2.2968 33.9629 2.3587 34.1471H36.5253C36.7729 34.577 36.8967 35.007 36.9585 35.4983H2.66818C2.66818 35.5597 2.66818 35.6825 2.66818 35.7439C2.66818 35.8054 2.66818 35.9282 2.66818 35.9896H36.9585C36.8967 36.4809 36.7729 36.9108 36.5253 37.3407H2.42059C2.3587 37.525 2.2968 37.7092 2.23491 37.8321H36.2158C35.6587 38.5076 34.7922 38.9375 33.8637 38.9375H1.80163C1.18267 38.9375 0.62561 39.4903 0.62561 40.1044C0.62561 40.78 1.12078 41.2713 1.80163 41.2713H33.8637C36.8348 41.2713 39.3106 38.7533 39.3106 35.6825C39.3106 32.7346 36.8967 30.2166 33.8637 30.2166Z" fill="white"/>
<path d="M38.5679 14.7397L20.9894 3.86914L3.41095 14.7397H4.58697L19.3801 5.58877C16.471 8.41389 10.4052 12.6516 6.32006 14.7397H7.61988C11.6431 12.5287 17.3994 8.4753 20.1848 5.7116C18.5755 8.41389 13.5619 12.6516 9.29107 14.7397H10.5909C14.8617 12.3445 19.7515 8.16822 20.9894 5.40453C22.2273 8.16822 27.1171 12.3445 31.326 14.6783H32.6259C28.355 12.5901 23.4034 8.35247 21.7941 5.65019C24.5794 8.4753 30.3357 12.4673 34.3589 14.7397H35.6588C31.5736 12.6516 25.5078 8.41389 22.5987 5.58877L37.3918 14.7397H38.5679Z" fill="white"/>
<path d="M41.354 12.3445L21.6092 0.184246C21.6092 0.184246 21.5473 0.184246 21.5473 0.122831C21.4854 0.122831 21.4854 0.0614155 21.4235 0.0614155C21.3616 0.0614155 21.3616 0.0614155 21.2997 0C21.2378 0 21.2378 0 21.1759 0C21.1141 0 21.1141 0 21.0522 0C21.0522 0 21.0522 0 20.9903 0C20.9284 0 20.9284 0 20.8665 0C20.8046 0 20.8046 0 20.7427 0C20.6808 0 20.6808 0 20.6189 0.0614155C20.557 0.0614155 20.557 0.0614155 20.4951 0.122831C20.4332 0.122831 20.4332 0.184246 20.3713 0.184246C20.3713 0.184246 20.3094 0.184246 20.3094 0.245662L0.564588 12.3445C0.00752379 12.713 -0.178164 13.5114 0.193212 14.0641C0.440796 14.4326 0.812172 14.6169 1.24544 14.6169C1.49303 14.6169 1.67872 14.5555 1.9263 14.4326L20.9903 2.70228L40.0542 14.4941C40.2399 14.6169 40.4875 14.6783 40.7351 14.6783C41.1684 14.6783 41.5397 14.4941 41.7873 14.1256C42.1587 13.5114 41.973 12.713 41.354 12.3445Z" fill="white"/>
</svg>
