<svg width="129" height="35" viewBox="0 0 129 35" fill="none" xmlns="http://www.w3.org/2000/svg">
<path d="M31.398 35C30.6737 35 29.9921 34.7062 29.5234 34.1187L27.3081 31.4748C25.3484 32.0624 23.2609 32.3981 21.1734 32.3981C19.0433 32.3981 16.9983 32.1043 15.0386 31.4748L12.7807 34.1187C12.0565 34.958 10.8636 35.2098 9.84115 34.7482L7.96665 33.8669C6.94419 33.4053 6.43296 32.3141 6.64597 31.223L7.49802 27.2362C6.09214 25.9353 4.94188 24.4245 4.13243 22.7878H2.51354C1.10766 22.7878 0 21.6966 0 20.3118V14.5624C0 13.1775 1.10766 12.0863 2.51354 12.0863H3.15258C3.70641 10.1978 4.68626 8.39329 6.00694 6.79856L3.87682 1.13309L5.15489 0.671463C8.00925 -0.419664 11.2044 -0.125899 13.8032 1.34293C16.1463 0.461631 18.6172 0 21.1734 0C31.4406 0 39.7906 7.26019 39.7906 16.199C39.7906 20.3537 38.0439 24.2146 34.8061 27.2362L35.6582 31.223C35.8712 32.3141 35.36 33.4053 34.3375 33.8669L32.463 34.7482C32.1222 34.9161 31.7814 35 31.398 35ZM28.2028 28.2854L31.4832 32.1882L32.889 31.5168L31.7814 26.229L32.4204 25.6835C35.4026 23.1235 37.0641 19.7662 37.0641 16.1571C37.0641 8.72902 29.9495 2.68585 21.216 2.68585C18.7876 2.68585 16.4445 3.14748 14.2292 4.07074L13.5476 4.36451L12.9085 3.94484C11.2896 2.93765 9.37252 2.51799 7.49802 2.81175L9.20211 7.34412L8.64828 7.97362C7.1146 9.65228 6.04954 11.6667 5.58091 13.723L5.3253 14.8141H2.76915V20.06H5.96433L6.30515 20.8993C7.07199 22.7038 8.35007 24.3405 9.96896 25.7254L10.608 26.271L9.50033 31.5588L10.9062 32.2302L14.1866 28.3273L15.0812 28.6631C17.041 29.3765 19.0859 29.7122 21.216 29.7122C23.3461 29.7122 25.391 29.3765 27.3507 28.6631L28.2028 28.2854Z" fill="#FBBD09"/>
<path d="M25.4336 7.42798C24.0277 6.92439 22.5792 6.37882 20.6621 7.17618C18.7024 6.42079 17.2539 6.92439 15.8907 7.42798C14.9108 7.80568 13.8458 8.18338 12.4399 8.18338V10.2817C14.2292 10.2817 15.5499 9.7781 16.6149 9.4004C18.106 8.85484 19.0006 8.51911 20.6195 9.48434C22.281 8.51911 23.1757 8.85484 24.6242 9.4004C25.6892 9.7781 27.0099 10.2817 28.7992 10.2817V8.18338C27.4785 8.14141 26.4561 7.76371 25.4336 7.42798Z" fill="white"/>
<path d="M49.8022 10.8274C49.8022 7.6799 52.3157 5.24585 55.4683 5.24585C58.5783 5.24585 61.1344 7.6799 61.1344 10.8274C61.1344 13.9749 58.6209 16.4089 55.4683 16.4089C52.3583 16.367 49.8022 13.9749 49.8022 10.8274ZM58.6635 10.8274C58.6635 8.89693 57.2576 7.63794 55.5109 7.63794C53.7216 7.63794 52.3583 8.89693 52.3583 10.8274C52.3583 12.7578 53.7642 14.0168 55.5109 14.0168C57.2576 14.0168 58.6635 12.7159 58.6635 10.8274Z" fill="white"/>
<path d="M62.4551 4.99414H64.7982V16.1572H62.4551V4.99414Z" fill="white"/>
<path d="M66.1189 12.3383C66.1189 10.0722 67.8656 8.30957 70.2513 8.30957C71.7424 8.30957 73.1057 9.10693 73.7447 10.282L71.6998 11.4571C71.4442 10.9115 70.8904 10.6177 70.2087 10.6177C69.1863 10.6177 68.462 11.3312 68.462 12.3803C68.462 13.4295 69.2289 14.1429 70.2087 14.1429C70.8904 14.1429 71.4868 13.8072 71.6998 13.3036L73.7447 14.4367C73.0631 15.6117 71.7424 16.4091 70.2513 16.4091C67.8656 16.3671 66.1189 14.6465 66.1189 12.3383Z" fill="white"/>
<path d="M80.7315 13.8911C80.7315 15.6537 79.1978 16.4091 77.4937 16.4091C75.96 16.4091 74.7671 15.8216 74.1707 14.6046L76.173 13.4715C76.386 14.059 76.8121 14.3947 77.4937 14.3947C78.0475 14.3947 78.3458 14.2269 78.3458 13.9331C78.3458 13.0938 74.5115 13.5554 74.5115 10.8695C74.5115 9.19089 75.96 8.35156 77.5789 8.35156C78.857 8.35156 79.9646 8.89713 80.6037 9.98825L78.6014 11.0374C78.3884 10.6597 78.0901 10.366 77.5789 10.366C77.1955 10.366 76.9399 10.5338 76.9399 10.7856C76.8973 11.6249 80.7315 11.0374 80.7315 13.8911Z" fill="white"/>
<path d="M81.4131 12.3382C81.4131 10.072 83.245 8.30942 85.5456 8.30942C87.8461 8.30942 89.678 10.072 89.678 12.3382C89.678 14.6044 87.8461 16.367 85.5456 16.367C83.245 16.367 81.4131 14.6464 81.4131 12.3382ZM87.3349 12.3382C87.3349 11.2471 86.568 10.5336 85.5456 10.5336C84.5231 10.5336 83.7563 11.2471 83.7563 12.3382C83.7563 13.4293 84.5231 14.1428 85.5456 14.1428C86.568 14.1428 87.3349 13.4293 87.3349 12.3382ZM86.3976 7.42813L88.1869 5.28784H85.3752L84.1397 7.42813H86.3976Z" fill="white"/>
<path d="M56.2778 31.1812L52.7844 26.2291V31.1812H50.2708V20.4797H52.7418V25.138L56.0647 20.4797H58.8765L55.2127 25.6836L59.0469 31.1812H56.2778Z" fill="white"/>
<path d="M58.8765 27.3622C58.8765 25.096 60.7084 23.3335 63.0089 23.3335C65.3095 23.3335 67.1414 25.096 67.1414 27.3622C67.1414 29.6284 65.3095 31.391 63.0089 31.391C60.7084 31.391 58.8765 29.6284 58.8765 27.3622ZM60.325 21.6128C60.325 20.9833 60.8362 20.4797 61.4752 20.4797C62.1143 20.4797 62.6255 20.9833 62.6255 21.6128C62.6255 22.2423 62.1143 22.7459 61.4752 22.7459C60.8362 22.7459 60.325 22.2423 60.325 21.6128ZM64.7556 27.3622C64.7556 26.2711 63.9888 25.5577 62.9663 25.5577C61.9439 25.5577 61.177 26.2711 61.177 27.3622C61.177 28.4534 61.9439 29.1668 62.9663 29.1668C63.9888 29.1668 64.7556 28.4534 64.7556 27.3622ZM63.3072 21.6128C63.3072 20.9833 63.8184 20.4797 64.4574 20.4797C65.0965 20.4797 65.6077 20.9833 65.6077 21.6128C65.6077 22.2423 65.0965 22.7459 64.4574 22.7459C63.8184 22.7879 63.3072 22.2423 63.3072 21.6128Z" fill="white"/>
<path d="M75.8748 26.481V31.1812H73.5317V26.8167C73.5317 25.8515 72.9353 25.4318 72.1684 25.4318C71.3164 25.4318 70.72 25.9354 70.72 27.0265V31.2232H68.3768V23.5433H70.72V24.2568C71.146 23.6692 71.9128 23.3335 72.9353 23.3335C74.5542 23.3335 75.8748 24.4246 75.8748 26.481Z" fill="white"/>
<path d="M84.7361 23.5432L82.0948 30.9713C81.2427 33.4053 79.8369 34.3705 77.6641 34.2446V32.1044C78.7718 32.1044 79.283 31.7686 79.6239 30.8454L76.5139 23.5432H79.07L80.8167 28.2435L82.2652 23.5432H84.7361Z" fill="white"/>
<path d="M93.1288 23.5432L90.2318 31.1811H87.5905L84.6935 23.5432H87.2923L88.9111 28.4113L90.53 23.5432H93.1288Z" fill="white"/>
<path d="M97.602 29.3767C98.2411 29.3767 98.7949 29.1249 99.0931 28.7892L100.968 29.8383C100.201 30.8875 99.0505 31.433 97.5594 31.433C94.9181 31.433 93.2566 29.6705 93.2566 27.4043C93.2566 25.1381 94.9181 23.3755 97.389 23.3755C99.647 23.3755 101.351 25.0961 101.351 27.4043C101.351 27.74 101.308 28.0338 101.266 28.3275H95.7275C96.0257 29.0829 96.75 29.3767 97.602 29.3767ZM99.0505 26.5649C98.7949 25.6836 98.1133 25.3479 97.389 25.3479C96.4944 25.3479 95.8979 25.7676 95.6849 26.5649H99.0505Z" fill="white"/>
<path d="M107.486 31.1812L105.015 27.7819V31.1812H102.672V20.4797H105.015V26.9006L107.358 23.5433H110.085L107.273 27.3622L110.17 31.1812H107.486Z" fill="white"/>
<path d="M111.959 30.4256C111.959 30.0899 112.215 29.7961 112.598 29.7961C112.939 29.7961 113.237 30.0899 113.237 30.4256C113.237 30.7614 112.939 31.0551 112.598 31.0551C112.215 31.0551 111.959 30.7614 111.959 30.4256Z" fill="white"/>
<path d="M121.204 26.5648V30.9293H120.48V26.5648C120.48 25.2638 119.713 24.4245 118.392 24.4245C116.986 24.4245 115.921 25.3058 115.921 27.1943V30.8873H115.197V21.1091H115.921V25.2218C116.475 24.1727 117.37 23.753 118.477 23.753C120.139 23.753 121.204 24.8861 121.204 26.5648Z" fill="white"/>
<path d="M129 23.9209V30.9293H128.276V29.5864C127.722 30.6355 126.827 31.0552 125.72 31.0552C124.016 31.0552 122.95 29.9641 122.95 28.2434V23.9209H123.675V28.2854C123.675 29.5864 124.442 30.4257 125.762 30.4257C127.168 30.4257 128.233 29.5444 128.233 27.6559V23.9209H129Z" fill="white"/>
</svg>
