<?xml version="1.0" encoding="UTF-8"?>
<svg width="221px" height="24px" viewBox="0 0 221 24" version="1.1" xmlns="http://www.w3.org/2000/svg" xmlns:xlink="http://www.w3.org/1999/xlink">
    <!-- Generator: Sketch 55 (78076) - https://sketchapp.com -->
    <title>LOGO</title>
    <desc>Created with Sketch.</desc>
    <defs>
        <polygon id="path-1" points="0 0.257314286 22.0196063 0.257314286 22.0196063 23.1428571 0 23.1428571"></polygon>
    </defs>
    <g id="LOGO" stroke="none" stroke-width="1" fill="none" fill-rule="evenodd">
        <g transform="translate(-0.000000, 0.000000)">
            <path d="M99.8751522,12.3455143 C99.8751522,16.9440857 97.7713382,19.4606571 93.3161023,19.4606571 L91.1610591,19.4606571 L91.1610591,5.07608571 L93.2537734,5.07608571 C97.9275874,5.07608571 99.8751522,7.53265714 99.8751522,12.0978 L99.8751522,12.3455143 Z M93.5005276,1.16322857 L86.1491322,1.16322857 L86.1491322,23.3743714 L93.4706439,23.3743714 C101.238704,23.3743714 105.106511,18.9326571 105.106511,12.2846571 L105.106511,12.0343714 C105.106511,5.38722857 101.268587,1.16322857 93.5005276,1.16322857 L93.5005276,1.16322857 Z" id="Fill-1" fill="#FFFFFF"></path>
            <polygon id="Fill-3" fill="#FFFFFF" points="37.287797 10.7320286 29.5496209 1.13288571 24.228611 1.13288571 32.9862488 11.6628857 23.7948701 23.3740286 29.6435412 23.3740286 37.287797 13.4028857 37.287797 23.3740286 42.2988701 23.3740286 42.2988701 1.16288571 37.287797 1.16288571"></polygon>
            <g id="Group-7" transform="translate(0.000000, 0.600000)">
                <mask id="mask-2" fill="white">
                    <use xlink:href="#path-1"></use>
                </mask>
                <g id="Clip-6"></g>
                <path d="M11.9274468,19.4744571 C9.1277691,19.4744571 8.11086877,18.2744571 7.73604153,16.6887429 L10.8601711,13.5516 C11.0403272,13.5773143 11.2196296,13.6030286 11.4074701,13.6287429 C14.6511346,14.1258857 15.581799,14.7516 15.581799,16.5258857 C15.581799,18.2658857 14.130304,19.4744571 11.9274468,19.4744571 M11.4672375,3.96017143 C13.2423306,3.96017143 14.3437591,4.58588571 14.8645897,5.88874286 L11.5782342,9.19731429 C8.76916445,8.70017143 8.1535598,7.94588571 8.1535598,6.48017143 C8.1535598,4.98874286 9.2643804,3.96017143 11.4672375,3.96017143 M14.677603,9.72017143 L17.4687425,6.90874286 L19.7663738,6.90874286 C19.7057525,6.21445714 19.5691412,5.58017143 19.3813007,4.99731429 L22.0196063,2.34874286 L20.2095066,0.5316 L18.0928854,2.65731429 C16.6832276,1.06302857 14.4462176,0.257314286 11.4672375,0.257314286 C6.57399169,0.257314286 3.41485548,3.08588571 3.41485548,6.88302857 C3.41485548,10.1401714 4.75620764,11.9058857 7.88972924,12.9001714 L4.96112458,15.8401714 L2.79242027,15.8401714 C2.8351113,16.5001714 2.93756977,17.1258857 3.09040365,17.7087429 L-0.000426910299,20.8116 L1.81821096,22.6287429 L4.26099169,20.1773143 C5.68601827,22.0544571 8.17917442,23.1430286 11.9274468,23.1430286 C17.1622209,23.1430286 20.388809,20.0058857 20.388809,16.0544571 C20.388809,12.2058857 18.45149,10.5516 14.677603,9.72017143" id="Fill-5" fill="#FFFFFF" mask="url(#mask-2)"></path>
            </g>
            <path d="M70.4384063,14.8825714 L73.3806721,5.274 L76.2922003,14.8825714 L70.4384063,14.8825714 Z M70.4076688,1.16914286 L63.1279944,23.4025714 L67.836815,23.4025714 L69.3540542,18.4585714 L77.3765525,18.4585714 L78.8946455,23.4025714 L84.1294196,23.4025714 L76.9428116,1.16914286 L70.4076688,1.16914286 Z" id="Fill-12" fill="#FFFFFF"></path>
            <polygon id="Fill-14" fill="#FFFFFF" points="60.484395 1.16957143 55.2188834 18.2412857 49.9533718 1.16957143 44.6562688 1.16957143 52.0597472 23.4021429 57.8204748 23.4021429 65.1932156 1.16957143"></polygon>
            <path d="M122.742432,21.7632 L118.576641,21.7632 L121.609412,2.60691429 L125.345731,2.60691429 C131.134634,2.60691429 133.585099,6.08177143 133.585099,10.5706286 C133.585099,17.5820571 129.480784,21.7632 122.742432,21.7632 M125.407206,1.19262857 L120.108395,1.19262857 L116.647006,23.1774857 L122.803053,23.1774857 C130.675279,23.1774857 135.331162,18.0123429 135.331162,10.5706286 C135.300425,5.22034286 132.267654,1.19262857 125.407206,1.19262857" id="Fill-16" fill="#FFFFFF"></path>
            <polygon id="Fill-18" fill="#FFFFFF" points="137.260712 23.1778286 138.976891 23.1778286 142.436572 1.19297143 140.7221 1.19297143"></polygon>
            <path d="M155.97552,13.8915429 L162.86756,13.8915429 C162.193895,19.0575429 159.344696,22.0095429 154.597453,22.0095429 C149.237168,22.0095429 146.358085,18.4429714 146.358085,13.4921143 C146.358085,7.31125714 150.125141,2.3304 156.006257,2.3304 C159.529121,2.3304 162.346729,3.99068571 162.775347,7.46468571 L164.460789,7.46468571 C164.00058,3.03754286 160.294998,0.946114286 156.036995,0.946114286 C149.32938,0.946114286 144.612022,6.63497143 144.612022,13.4921143 C144.612022,19.1501143 148.19636,23.4238286 154.56757,23.4238286 C160.233523,23.4238286 164.092792,20.1641143 164.705836,12.4464 L156.220566,12.4464 L155.97552,13.8915429 Z" id="Fill-20" fill="#FFFFFF"></path>
            <polygon id="Fill-22" fill="#FFFFFF" points="166.940967 23.1778286 168.657147 23.1778286 172.116828 1.19297143 170.402356 1.19297143"></polygon>
            <polygon id="Fill-24" fill="#FFFFFF" points="190.679485 1.19254286 175.364505 1.19254286 175.15105 2.60682857 181.919286 2.60682857 178.703797 23.1774 180.418269 23.1774 183.634611 2.60682857 190.434439 2.60682857"></polygon>
            <path d="M192.181185,15.0600857 L198.552394,2.57665714 L201.06348,15.0600857 L192.181185,15.0600857 Z M197.663567,1.19237143 L186.392281,23.1780857 L188.046132,23.1780857 L191.476783,16.4435143 L201.339264,16.4435143 L202.717331,23.1780857 L204.371181,23.1780857 L199.93046,1.19237143 L197.663567,1.19237143 Z" id="Fill-26" fill="#FFFFFF"></path>
            <polygon id="Fill-28" fill="#FFFFFF" points="209.333501 21.7632 212.580581 1.19262857 210.865255 1.19262857 207.403867 23.1774857 219.747551 23.1774857 219.992598 21.7632"></polygon>
        </g>
    </g>
</svg>