<?xml version="1.0" encoding="UTF-8"?>
<svg width="222px" height="24px" viewBox="0 0 222 24" version="1.1" xmlns="http://www.w3.org/2000/svg" xmlns:xlink="http://www.w3.org/1999/xlink">
    <!-- Generator: Sketch 55 (78076) - https://sketchapp.com -->
    <title>logo-black</title>
    <desc>Created with Sketch.</desc>
    <defs>
        <polygon id="path-1" points="0 0.257142857 22.1052857 0.257142857 22.1052857 23.1427714 0 23.1427714"></polygon>
    </defs>
    <g id="logo-black" stroke="none" stroke-width="1" fill="none" fill-rule="evenodd">
        <g id="Group-30">
            <path d="M100.263771,12.3440571 C100.263771,16.9426286 98.1517714,19.4592 93.6792,19.4592 L91.5157714,19.4592 L91.5157714,5.07462857 L93.6166286,5.07462857 C98.3086286,5.07462857 100.263771,7.5312 100.263771,12.0963429 L100.263771,12.3440571 Z M93.8643429,1.16177143 L86.4843429,1.16177143 L86.4843429,23.3720571 L93.8343429,23.3720571 C101.632629,23.3720571 105.515486,18.9312 105.515486,12.2832 L105.515486,12.0329143 C105.515486,5.38577143 101.662629,1.16177143 93.8643429,1.16177143 L93.8643429,1.16177143 Z" id="Fill-1" fill="#141E20"></path>
            <polygon id="Fill-3" fill="#141E20" points="37.4328857 10.7305714 29.6646 1.13142857 24.3228857 1.13142857 33.1146 11.6614286 23.8874571 23.3725714 29.7588857 23.3725714 37.4328857 13.4014286 37.4328857 23.3725714 42.4634571 23.3725714 42.4634571 1.16142857 37.4328857 1.16142857"></polygon>
            <g id="Group-7" transform="translate(0.000000, 0.600000)">
                <mask id="mask-2" fill="white">
                    <use xlink:href="#path-1"></use>
                </mask>
                <g id="Clip-6"></g>
                <path d="M11.9738571,19.4742 C9.16328571,19.4742 8.14242857,18.2742 7.76614286,16.6799143 L10.9024286,13.5513429 C11.0832857,13.5770571 11.2632857,13.6027714 11.4518571,13.6284857 C14.7081429,14.1256286 15.6424286,14.7513429 15.6424286,16.5170571 C15.6424286,18.2570571 14.1852857,19.4742 11.9738571,19.4742 M11.5118571,3.95991429 C13.2938571,3.95991429 14.3995714,4.58562857 14.9224286,5.88848571 L11.6232857,9.19705714 C8.80328571,8.69134286 8.18528571,7.94562857 8.18528571,6.47991429 C8.18528571,4.97991429 9.30042857,3.95991429 11.5118571,3.95991429 M14.7347143,9.71991429 L17.5367143,6.90848571 L19.8432857,6.90848571 C19.7824286,6.2142 19.6452857,5.57991429 19.4567143,4.98848571 L22.1052857,2.34848571 L20.2881429,0.522771429 L18.1632857,2.65705714 C16.7481429,1.06277143 14.5024286,0.257057143 11.5118571,0.257057143 C6.59957143,0.257057143 3.42814286,3.08562857 3.42814286,6.88277143 C3.42814286,10.1399143 4.77471429,11.9056286 7.92042857,12.8999143 L4.98042857,15.8399143 L2.80328571,15.8399143 C2.84614286,16.4999143 2.949,17.1170571 3.10242857,17.7084857 L-0.000428571429,20.8113429 L1.82528571,22.6284857 L4.27757143,20.1684857 C5.70814286,22.0542 8.211,23.1427714 11.9738571,23.1427714 C17.229,23.1427714 20.4681429,20.0056286 20.4681429,16.0542 C20.4681429,12.2056286 18.5232857,10.5513429 14.7347143,9.71991429" id="Fill-5" fill="#141E20" mask="url(#mask-2)"></path>
            </g>
            <path d="M70.7124857,14.8811143 L73.6662,5.27254286 L76.5890571,14.8811143 L70.7124857,14.8811143 Z M70.6816286,1.16768571 L63.3736286,23.4011143 L68.1007714,23.4011143 L69.6239143,18.4571143 L77.6776286,18.4571143 L79.2016286,23.4011143 L84.4567714,23.4011143 L77.2422,1.16768571 L70.6816286,1.16768571 Z" id="Fill-12" fill="#141E20"></path>
            <polygon id="Fill-14" fill="#141E20" points="60.7197429 1.16768571 55.4337429 18.2394 50.1477429 1.16768571 44.8300286 1.16768571 52.2623143 23.4011143 58.0454571 23.4011143 65.4468857 1.16768571"></polygon>
            <path d="M123.220029,21.7617429 L119.038029,21.7617429 L122.0826,2.60545714 L125.833457,2.60545714 C131.644886,2.60545714 134.104886,6.08031429 134.104886,10.5691714 C134.104886,17.5806 129.9846,21.7617429 123.220029,21.7617429 M125.895171,1.19117143 L120.575743,1.19117143 L117.100886,23.1760286 L123.280886,23.1760286 C131.183743,23.1760286 135.857743,18.0108857 135.857743,10.5691714 C135.826886,5.21888571 132.782314,1.19117143 125.895171,1.19117143" id="Fill-16" fill="#141E20"></path>
            <polygon id="Fill-18" fill="#141E20" points="137.7948 23.1763714 139.517657 23.1763714 142.9908 1.19151429 141.269657 1.19151429"></polygon>
            <path d="M156.582429,13.8900857 L163.501286,13.8900857 C162.825,19.0560857 159.964714,22.0080857 155.199,22.0080857 C149.817857,22.0080857 146.927571,18.4415143 146.927571,13.4906571 C146.927571,7.3098 150.709286,2.32894286 156.613286,2.32894286 C160.149857,2.32894286 162.978429,3.98922857 163.408714,7.46322857 L165.100714,7.46322857 C164.638714,3.03608571 160.918714,0.944657143 156.644143,0.944657143 C149.910429,0.944657143 145.174714,6.63351429 145.174714,13.4906571 C145.174714,19.1486571 148.773,23.4223714 155.169,23.4223714 C160.857,23.4223714 164.731286,20.1626571 165.346714,12.4449429 L156.828429,12.4449429 L156.582429,13.8900857 Z" id="Fill-20" fill="#141E20"></path>
            <polygon id="Fill-22" fill="#141E20" points="167.590543 23.1763714 169.3134 23.1763714 172.786543 1.19151429 171.0654 1.19151429"></polygon>
            <polygon id="Fill-24" fill="#141E20" points="191.421429 1.19108571 176.046857 1.19108571 175.832571 2.60537143 182.627143 2.60537143 179.399143 23.1759429 181.120286 23.1759429 184.349143 2.60537143 191.175429 2.60537143"></polygon>
            <path d="M192.928971,15.0585429 L199.324971,2.57511429 L201.845829,15.0585429 L192.928971,15.0585429 Z M198.432686,1.19082857 L187.117543,23.1765429 L188.777829,23.1765429 L192.221829,16.4419714 L202.122686,16.4419714 L203.506114,23.1765429 L205.1664,23.1765429 L200.7084,1.19082857 L198.432686,1.19082857 Z" id="Fill-26" fill="#141E20"></path>
            <polygon id="Fill-28" fill="#141E20" points="210.148029 21.7617429 213.407743 1.19117143 211.685743 1.19117143 208.210886 23.1760286 220.6026 23.1760286 220.8486 21.7617429"></polygon>
        </g>
    </g>
</svg>