<svg width="77" height="68" viewBox="0 0 77 68" fill="none" xmlns="http://www.w3.org/2000/svg">
<path d="M60.9259 67.0341C59.5388 67.0341 58.2333 66.4715 57.3357 65.3462L53.0928 60.2825C49.3395 61.4077 45.3413 62.0507 41.3432 62.0507C37.2635 62.0507 33.3469 61.4881 29.5936 60.2825L25.269 65.3462C23.8819 66.9537 21.5973 67.436 19.639 66.5518L16.0488 64.8639C14.0906 63.9798 13.1114 61.89 13.5194 59.8002L15.1513 52.1644C12.4587 49.6727 10.2556 46.7792 8.70533 43.6445H5.60473C2.91211 43.6445 0.790649 41.5547 0.790649 38.9023V27.8907C0.790649 25.2383 2.91211 23.1485 5.60473 23.1485H6.82865C7.88938 19.5315 9.76606 16.0753 12.2955 13.021L8.21576 2.17017L10.6636 1.28603C16.1304 -0.803766 22.25 -0.24113 27.2273 2.57205C31.715 0.884143 36.4475 0 41.3432 0C61.0075 0 77 13.9052 77 31.0254C77 38.9827 73.6546 46.3773 67.4535 52.1644L69.0854 59.8002C69.4933 61.89 68.5142 63.9798 66.5559 64.8639L62.9658 66.5518C62.313 66.8733 61.6602 67.0341 60.9259 67.0341ZM54.8063 54.1738L61.0891 61.6488L63.7817 60.3628L61.6602 50.2354L62.8842 49.1905C68.5958 44.2875 71.778 37.8574 71.778 30.945C71.778 16.7183 58.1517 5.1441 41.4248 5.1441C36.7739 5.1441 32.2862 6.02824 28.0433 7.79653L26.7377 8.35917L25.5138 7.5554C22.4132 5.62636 18.7415 4.8226 15.1513 5.38523L18.4151 14.0659L17.3544 15.2716C14.417 18.4866 12.3771 22.3447 11.4795 26.2831L10.99 28.3729H6.0943V38.42H12.2139L12.8667 40.0275C14.3354 43.4837 16.7832 46.6184 19.8838 49.2709L21.1077 50.3158L18.9862 60.4432L21.6789 61.7292L27.9617 54.2542L29.6751 54.8972C33.4285 56.2636 37.345 56.9066 41.4248 56.9066C45.5045 56.9066 49.421 56.2636 53.1744 54.8972L54.8063 54.1738Z" fill="#FBBD09"/>
</svg>
