<svg width="71" height="69" viewBox="0 0 71 69" fill="none" xmlns="http://www.w3.org/2000/svg">
<path d="M10.1295 32.1685H63.6123C64.6448 32.1685 65.574 31.2465 65.574 30.222C65.574 29.0951 64.748 28.2755 63.6123 28.2755H10.1295C5.17358 28.1731 1.04364 32.3734 1.04364 37.4958C1.04364 42.6181 5.07034 46.8184 10.1295 46.8184H63.6123C64.6448 46.8184 65.574 45.8964 65.574 44.8719C65.574 43.745 64.748 42.9255 63.6123 42.9255H10.1295C8.58079 42.9255 7.23856 42.2083 6.20607 41.0814H62.9928C62.8895 40.8765 62.7863 40.5692 62.6831 40.2618H5.68983C5.27683 39.5447 5.07034 38.8276 4.96709 38.008H62.1668C62.1668 37.9055 62.1668 37.7006 62.1668 37.5982C62.1668 37.4958 62.1668 37.2909 62.1668 37.1884H4.96709C5.07034 36.3688 5.27683 35.6517 5.68983 34.9346H62.6831C62.7863 34.6272 62.8895 34.3199 62.9928 34.115H6.30932C7.23856 32.8856 8.58079 32.1685 10.1295 32.1685Z" fill="#4971FF"/>
<path d="M56.4881 50.4043H3.00536C1.97288 50.4043 1.04364 51.3263 1.04364 52.3508C1.04364 53.4777 1.86963 54.2973 3.00536 54.2973H56.4881C58.0369 54.2973 59.3791 55.0144 60.4116 56.1413H3.62486C3.7281 56.3462 3.83135 56.6536 3.9346 56.9609H60.9278C61.3408 57.678 61.5473 58.3952 61.6506 59.2147H4.45084C4.45084 59.3172 4.45084 59.5221 4.45084 59.6245C4.45084 59.727 4.45084 59.9319 4.45084 60.0343H61.6506C61.5473 60.8539 61.3408 61.571 60.9278 62.2882H4.03785C3.9346 62.5955 3.83135 62.9028 3.7281 63.1077H60.4116C59.4823 64.2346 58.0369 64.9518 56.4881 64.9518H3.00536C1.97288 64.9518 1.04364 65.8738 1.04364 66.8983C1.04364 68.0252 1.86963 68.8448 3.00536 68.8448H56.4881C61.4441 68.8448 65.574 64.6444 65.574 59.5221C65.574 54.6046 61.5473 50.4043 56.4881 50.4043Z" fill="#4971FF"/>
<path d="M64.335 24.5872L35.0124 6.4541L5.68982 24.5872H7.65154L32.328 9.32262C27.4753 14.0352 17.3569 21.104 10.5425 24.5872H12.7107C19.4219 20.8991 29.024 14.1376 33.6702 9.52751C30.9857 14.0352 22.6226 21.104 15.4984 24.5872H17.6667C24.7908 20.5918 32.9475 13.6254 35.0124 9.01528C37.0774 13.6254 45.234 20.5918 52.2549 24.4848H54.4232C47.299 21.0016 39.0391 13.9327 36.3547 9.42507C41.0008 14.1376 50.603 20.7967 57.3141 24.5872H59.4823C52.6679 21.104 42.5496 14.0352 37.6969 9.32262L62.3733 24.5872H64.335Z" fill="#4971FF"/>
<path d="M68.9826 20.5919L36.0463 0.307341C36.0463 0.307341 35.9431 0.307341 35.9431 0.204894C35.8398 0.204894 35.8398 0.102447 35.7366 0.102447C35.6333 0.102447 35.6333 0.102447 35.5301 0C35.4268 0 35.4268 0 35.3236 0C35.2203 0 35.2203 0 35.1171 0C35.1171 0 35.1171 0 35.0138 0C34.9106 0 34.9106 0 34.8073 0C34.7041 0 34.7041 0 34.6008 0C34.4976 0 34.4976 0 34.3943 0.102447C34.2911 0.102447 34.2911 0.102447 34.1878 0.204894C34.0846 0.204894 34.0846 0.307341 33.9813 0.307341C33.9813 0.307341 33.8781 0.307341 33.8781 0.409788L0.941788 20.5919C0.0125504 21.2065 -0.297195 22.5384 0.322296 23.4604C0.735291 24.0751 1.35478 24.3824 2.07752 24.3824C2.49052 24.3824 2.80026 24.28 3.21326 24.0751L35.0138 4.50767L66.8144 24.1775C67.1241 24.3824 67.5371 24.4849 67.9501 24.4849C68.6729 24.4849 69.2924 24.1775 69.7054 23.5628C70.3249 22.5384 70.0151 21.2065 68.9826 20.5919Z" fill="#4971FF"/>
</svg>
