<svg width="77" height="65" viewBox="0 0 77 65" fill="none" xmlns="http://www.w3.org/2000/svg">
<path d="M70.7097 15.9378H37.7419C34.7054 15.9378 32.1027 13.4047 32.1027 10.2383C32.1027 7.07194 34.597 4.53882 37.7419 4.53882H70.7097C71.3603 4.53882 71.9026 5.06655 71.9026 5.69983C71.9026 6.33311 71.3603 6.86084 70.7097 6.86084H37.7419C36.0068 6.86084 34.4885 8.3385 34.4885 10.1328C34.4885 11.9271 35.8983 13.4047 37.7419 13.4047H70.7097C71.3603 13.4047 71.9026 13.9325 71.9026 14.5657C71.9026 15.4101 71.3603 15.9378 70.7097 15.9378Z" fill="#E30613"/>
<path d="M70.3827 8.12769H34.0531V8.65542H70.1658C70.1658 8.44433 70.2742 8.23323 70.3827 8.12769Z" fill="#E30613"/>
<path d="M69.8404 10.2382C69.8404 10.1326 69.8404 10.0271 69.8404 10.0271H34.0531V10.5548H69.8404C69.8404 10.4493 69.8404 10.3437 69.8404 10.2382Z" fill="#E30613"/>
<path d="M70.1658 11.9263H34.0531V12.454H70.3827C70.2742 12.2429 70.1658 12.0318 70.1658 11.9263Z" fill="#E30613"/>
<path d="M63.6556 29.7641H30.6879C30.0372 29.7641 29.495 29.2364 29.495 28.6031C29.495 27.9698 30.0372 27.4421 30.6879 27.4421H63.6556C65.3908 27.4421 66.909 25.9644 66.909 24.1701C66.909 22.3758 65.4992 20.8982 63.6556 20.8982H30.6879C30.0372 20.8982 29.495 20.3705 29.495 19.7372C29.495 19.1039 30.0372 18.5762 30.6879 18.5762H63.6556C66.6921 18.5762 69.2949 21.1093 69.2949 24.2757C69.1864 27.231 66.6921 29.7641 63.6556 29.7641Z" fill="#E30613"/>
<path d="M31.1274 26.2811H67.457V25.7534H31.2359C31.2359 25.9645 31.1274 26.0701 31.1274 26.2811Z" fill="#E30613"/>
<path d="M31.5616 24.1704C31.5616 24.2759 31.5616 24.3815 31.5616 24.3815H67.3489V23.8538H31.5616C31.5616 23.9593 31.5616 24.0649 31.5616 24.1704Z" fill="#E30613"/>
<path d="M31.1274 21.9539C31.2359 22.0594 31.2359 22.2705 31.3443 22.4816H67.457V21.9539H31.1274Z" fill="#E30613"/>
<path d="M70.7097 43.6966H37.7419C34.7054 43.6966 32.1027 41.1635 32.1027 37.9971C32.1027 34.8307 34.597 32.2976 37.7419 32.2976H70.7097C71.3603 32.2976 71.9026 32.8253 71.9026 33.4586C71.9026 34.0919 71.3603 34.6196 70.7097 34.6196H37.7419C36.0068 34.6196 34.4885 36.0973 34.4885 37.8916C34.4885 39.6859 35.8983 41.1635 37.7419 41.1635H70.7097C71.3603 41.1635 71.9026 41.6913 71.9026 42.3245C71.9026 43.1689 71.3603 43.6966 70.7097 43.6966Z" fill="#E30613"/>
<path d="M70.3827 35.886H34.0531V36.4137H70.1658C70.1658 36.2026 70.2742 35.9915 70.3827 35.886Z" fill="#E30613"/>
<path d="M70.1658 39.5798H34.0531V40.1076H70.3827C70.2742 40.002 70.1658 39.7909 70.1658 39.5798Z" fill="#E30613"/>
<path d="M69.8404 37.997C69.8404 37.8914 69.8404 37.7859 69.8404 37.7859H34.0531V38.3136H69.8404C69.8404 38.2081 69.8404 38.1025 69.8404 37.997Z" fill="#E30613"/>
<path d="M73.312 52.5622H28.632C27.3306 52.5622 26.1377 51.7178 25.7039 50.3457L12.9073 6.01615H4.01465C2.27951 6.01615 0.978149 4.7496 0.978149 3.06085C0.978149 1.37211 2.27951 0 4.01465 0H15.0762C16.3775 0 17.5705 0.844373 18.0042 2.21648L30.9094 46.546H73.312C74.9386 46.546 76.3484 47.9181 76.3484 49.6069C76.3484 51.1901 75.0471 52.5622 73.312 52.5622Z" fill="black"/>
<path d="M41.2122 60.1616C41.2122 57.6285 39.1517 55.5176 36.6575 55.5176C34.1632 55.5176 32.1027 57.6285 32.1027 60.1616C32.1027 62.6947 34.1632 64.8057 36.6575 64.8057C39.1517 64.8057 41.2122 62.8003 41.2122 60.1616Z" fill="black"/>
<path d="M70.5973 60.1616C70.5973 57.6285 68.5368 55.5176 66.0425 55.5176C63.5483 55.5176 61.4878 57.6285 61.4878 60.1616C61.4878 62.6947 63.5483 64.8057 66.0425 64.8057C68.5368 64.8057 70.5973 62.8003 70.5973 60.1616Z" fill="black"/>
</svg>
