<svg viewBox="0 0 38 38" fill="none" xmlns="http://www.w3.org/2000/svg">
<path d="M27.7514 1.68514V0H3.66926C1.64484 0 0 1.98004 0 4.38137V4.80266C0 7.16186 1.64484 9.14191 3.66926 9.14191H27.7514V7.45676C26.697 7.45676 25.7691 6.23503 25.7691 4.80266V4.38137C25.7691 2.90687 26.697 1.68514 27.7514 1.68514ZM24.8835 7.45676H3.66926C2.61487 7.45676 1.68701 6.23503 1.68701 4.76053V4.33925C1.68701 2.90687 2.61487 1.68514 3.66926 1.68514H24.8835C24.3774 2.44346 24.1243 3.37029 24.1243 4.38137V4.80266C24.0821 5.77162 24.3774 6.69845 24.8835 7.45676Z" fill="#353535"/>
<path d="M24.9679 10.6165H0.843567V12.3016C1.94013 12.3016 2.82581 13.5233 2.82581 14.9557V15.377C2.82581 16.8094 1.94013 18.0311 0.843567 18.0311V19.7162H17.3763C17.8402 19.0843 18.3885 18.5366 18.9368 18.0311H3.75367C4.2176 17.2728 4.51282 16.3459 4.51282 15.377V14.9557C4.51282 13.9446 4.2176 13.0178 3.75367 12.3016H24.9679C26.0223 12.3016 26.9501 13.5233 26.9501 14.9557V15.04C27.5406 15.04 28.0889 15.0821 28.6371 15.1663V14.9557C28.595 12.5544 26.9501 10.6165 24.9679 10.6165Z" fill="#353535"/>
<path d="M3.66926 22.8758H15.6049C15.8158 22.286 16.0688 21.7383 16.364 21.1907H3.66926C1.64484 21.1907 0 23.1707 0 25.5721V25.9933C0 28.3525 1.64484 30.3326 3.66926 30.3326H15.3518C15.1831 29.7849 15.0566 29.2372 15.0144 28.6474H3.66926C2.5727 28.6474 1.68701 27.4257 1.68701 25.9512V25.5299C1.68701 24.0975 2.61487 22.8758 3.66926 22.8758Z" fill="#353535"/>
<path d="M30.204 26.1841C30.6437 26.1841 31.0001 26.5405 31.0001 26.9801C31.0001 27.4197 30.6437 27.7761 30.204 27.7761H27.816V30.204C27.816 30.6436 27.4596 31 27.02 31C26.5803 31 26.2239 30.6436 26.2239 30.204V27.7761H23.7961C23.3565 27.7761 23.0001 27.4197 23.0001 26.9801C23.0001 26.5405 23.3565 26.1841 23.7961 26.1841H26.2239V23.796C26.2239 23.3564 26.5803 23 27.02 23C27.4596 23 27.816 23.3564 27.816 23.796V26.1841H30.204Z" fill="#E30613"/>
<path d="M28.6371 16.1774C28.0888 16.0932 27.5827 16.051 27.0344 16.051H26.9501C24.6726 16.051 22.5217 16.8093 20.7503 18.0311C20.0333 18.5366 19.4007 19.0843 18.8524 19.7162C18.4307 20.1796 18.0511 20.643 17.7559 21.1907C17.4185 21.7384 17.1232 22.2861 16.8702 22.8759C16.3219 24.1397 16.0267 25.5721 16.0267 27.0466C16.0267 27.5943 16.0688 28.1419 16.1532 28.6475C16.2375 29.2373 16.3641 29.785 16.5328 30.3326C17.9246 34.7983 22.0999 38 26.9923 38C33.0233 38 37.9579 33.071 37.9579 27.0466C38 21.5277 33.9512 16.9779 28.6371 16.1774ZM27.0344 36.3149C23.07 36.3149 19.6538 33.8293 18.3463 30.3326C18.1354 29.785 17.9667 29.2373 17.8824 28.6475C17.798 28.1419 17.7559 27.5943 17.7559 27.0466C17.7559 25.53 18.0933 24.1397 18.7681 22.8759C19.0633 22.2861 19.4429 21.6963 19.8646 21.1907C20.2864 20.643 20.7925 20.1375 21.3829 19.7162C22.3952 18.9158 23.5339 18.3681 24.7991 18.0311C25.1365 17.9468 25.474 17.9047 25.8114 17.8204C26.2331 17.7783 26.6549 17.7362 27.0766 17.7362C27.414 17.7362 27.7936 17.7362 28.131 17.7783C32.7703 18.2838 36.3552 22.2439 36.3552 27.0045C36.313 32.1442 32.1377 36.3149 27.0344 36.3149Z" fill="#353535"/>
</svg>
