<svg width="25" height="24" viewBox="0 0 25 24" fill="none" xmlns="http://www.w3.org/2000/svg">
<path fill-rule="evenodd" clip-rule="evenodd" d="M5.38235 6.73873L6.08585 15.1061C6.13719 15.7501 6.66335 16.2331 7.30619 16.2331H7.31085H20.0404H20.0427C20.6505 16.2331 21.1697 15.7804 21.256 15.1796L22.3644 7.5274C22.39 7.3454 22.3445 7.1634 22.2337 7.0164C22.124 6.86823 21.963 6.77256 21.781 6.7469C21.5372 6.75623 11.4187 6.74223 5.38235 6.73873ZM7.30385 17.9831C5.76735 17.9831 4.46652 16.7837 4.34169 15.2496L3.27302 2.5399L1.51486 2.23657C1.03769 2.15257 0.719188 1.70107 0.800855 1.2239C0.884855 0.746735 1.34569 0.436402 1.81236 0.511068L4.23902 0.931068C4.62986 0.999902 4.92735 1.32423 4.96119 1.7209L5.23535 4.98873C21.8907 4.99573 21.9444 5.0039 22.0249 5.01323C22.6747 5.10773 23.2464 5.44723 23.636 5.9699C24.0257 6.4914 24.189 7.13423 24.0957 7.77823L22.9885 15.4292C22.7797 16.8852 21.515 17.9831 20.045 17.9831H20.0392H7.31319H7.30385Z" fill="#353535"/>
<path fill-rule="evenodd" clip-rule="evenodd" d="M18.1686 11.051H14.9346C14.4504 11.051 14.0596 10.659 14.0596 10.176C14.0596 9.69303 14.4504 9.30103 14.9346 9.30103H18.1686C18.6516 9.30103 19.0436 9.69303 19.0436 10.176C19.0436 10.659 18.6516 11.051 18.1686 11.051Z" fill="#353535"/>
<path fill-rule="evenodd" clip-rule="evenodd" d="M6.80185 21.1523C7.15302 21.1523 7.43652 21.4358 7.43652 21.787C7.43652 22.1382 7.15302 22.4228 6.80185 22.4228C6.44952 22.4228 6.16602 22.1382 6.16602 21.787C6.16602 21.4358 6.44952 21.1523 6.80185 21.1523Z" fill="#353535"/>
<mask id="mask0" mask-type="alpha" maskUnits="userSpaceOnUse" x="6" y="21" width="2" height="2">
<path fill-rule="evenodd" clip-rule="evenodd" d="M6.16602 21.7865C6.16602 22.1389 6.44952 22.4235 6.80302 22.4235C7.15418 22.4235 7.43768 22.1389 7.43768 21.7865C7.43768 21.4354 7.15418 21.1519 6.80302 21.1519C6.44952 21.1519 6.16602 21.4354 6.16602 21.7865Z" fill="white"/>
</mask>
<g mask="url(#mask0)">
<path fill-rule="evenodd" clip-rule="evenodd" d="M0.333984 28.2558H13.2711V15.3186H0.333984V28.2558Z" fill="#353535"/>
</g>
<path fill-rule="evenodd" clip-rule="evenodd" d="M6.80068 21.5476C6.66884 21.5476 6.56151 21.6549 6.56151 21.7868C6.56151 22.0516 7.04101 22.0516 7.04101 21.7868C7.04101 21.6549 6.93251 21.5476 6.80068 21.5476ZM6.80068 23.2976C5.96768 23.2976 5.29102 22.6198 5.29102 21.7868C5.29102 20.9538 5.96768 20.2771 6.80068 20.2771C7.63368 20.2771 8.31152 20.9538 8.31152 21.7868C8.31152 22.6198 7.63368 23.2976 6.80068 23.2976Z" fill="#353535"/>
<path fill-rule="evenodd" clip-rule="evenodd" d="M19.962 21.1521C20.3132 21.1521 20.5978 21.4356 20.5978 21.7868C20.5978 22.1379 20.3132 22.4226 19.962 22.4226C19.6097 22.4226 19.3262 22.1379 19.3262 21.7868C19.3262 21.4356 19.6097 21.1521 19.962 21.1521Z" fill="#353535"/>
<mask id="mask1" mask-type="alpha" maskUnits="userSpaceOnUse" x="19" y="21" width="2" height="2">
<path fill-rule="evenodd" clip-rule="evenodd" d="M19.3271 21.7865C19.3271 22.1389 19.6106 22.4235 19.963 22.4235C20.313 22.4235 20.5988 22.1389 20.5988 21.7865C20.5988 21.4354 20.313 21.1519 19.963 21.1519C19.6106 21.1519 19.3271 21.4354 19.3271 21.7865Z" fill="white"/>
</mask>
<g mask="url(#mask1)">
<path fill-rule="evenodd" clip-rule="evenodd" d="M13.4941 28.2558H26.4325V15.3186H13.4941V28.2558Z" fill="#353535"/>
</g>
<path fill-rule="evenodd" clip-rule="evenodd" d="M19.9608 21.5476C19.8302 21.5476 19.7228 21.6549 19.7228 21.7868C19.724 22.0539 20.2023 22.0516 20.2012 21.7868C20.2012 21.6549 20.0927 21.5476 19.9608 21.5476ZM19.9608 23.2976C19.1278 23.2976 18.4512 22.6198 18.4512 21.7868C18.4512 20.9538 19.1278 20.2771 19.9608 20.2771C20.795 20.2771 21.4728 20.9538 21.4728 21.7868C21.4728 22.6198 20.795 23.2976 19.9608 23.2976Z" fill="#353535"/>
</svg>
