<svg viewBox="0 0 48 31" fill="none" xmlns="http://www.w3.org/2000/svg">
<path d="M9.9 14.1H0V16.1H9.9V14.1Z" fill="#E30613"/>
<path d="M12.3 9.9H2.40002V11.9H12.3V9.9Z" fill="#E30613"/>
<path d="M14.7 5.6H4.79999V7.6H14.7V5.6Z" fill="#E30613"/>
<path d="M47.4 12.8L40.1 5C39.9 4.8 39.7 4.7 39.4 4.7H33.3V4.3C33.3 1.9 31.3 0 29 0H9.69999C7.49999 0 5.69999 1.6 5.39999 3.7H7.39999C7.69999 2.7 8.59999 2 9.69999 2H29C30.3 2 31.4 3.1 31.4 4.4V24.4H20.4C19.9 22 17.8 20.2 15.3 20.2C12.8 20.2 10.7 22 10.2 24.4H9.69999C8.39999 24.4 7.29999 23.3 7.29999 22V18H5.29999V22C5.29999 24.4 7.19999 26.3 9.59999 26.3H10.2C10.7 28.7 12.8 30.5 15.3 30.5C17.8 30.5 19.9 28.7 20.4 26.3H32.3H34.7C35.2 28.7 37.3 30.5 39.8 30.5C42.3 30.5 44.4 28.7 44.9 26.3H46.7C47.2 26.3 47.7 25.9 47.7 25.3V13.4C47.7 13.2 47.6 13 47.4 12.8ZM15.3 28.5C13.5 28.5 12.1 27.1 12.1 25.3C12.1 23.5 13.5 22.1 15.3 22.1C17.1 22.1 18.5 23.5 18.5 25.3C18.5 27.1 17.1 28.5 15.3 28.5ZM33.3 6.7H39L44.4 12.5H33.3V6.7ZM39.8 28.5C38 28.5 36.6 27.1 36.6 25.3C36.6 23.5 38 22.1 39.8 22.1C41.6 22.1 43 23.5 43 25.3C43 27.1 41.5 28.5 39.8 28.5ZM45.7 24.3H44.9C44.4 21.9 42.3 20.1 39.8 20.1C37.3 20.1 35.2 21.9 34.7 24.3H33.3V14.4H45.7V24.3Z" fill="#353535"/>
</svg>
