<svg viewBox="0 0 41 32" fill="none" xmlns="http://www.w3.org/2000/svg">
<path d="M9.15484 17.1435C10.0911 17.1435 11.0274 17.3453 12.1718 17.7487C14.4605 18.505 17.4254 19.8665 21.9508 20.5725C25.696 21.1776 25.3319 23.0434 25.2278 23.2451C25.0718 23.4972 25.0198 23.5476 24.6556 23.6485C24.2915 23.7493 23.6673 23.7998 22.679 23.7493L16.229 23.4972C14.8766 23.3964 14.7726 25.4134 16.125 25.4134L22.575 25.6655C23.6153 25.7159 24.4476 25.716 25.1758 25.5142C26.0081 25.2621 26.5282 24.8083 26.8923 24.1527C27.0484 23.9006 27.1524 23.5476 27.1524 23.5476L35.9952 20.6734C37.5556 20.1691 38.4399 20.7742 38.804 21.4297C39.0121 21.7827 39.0121 22.0853 38.9081 22.3878C38.804 22.6904 38.544 22.993 37.9718 23.1947L23.4593 28.8928C21.7427 29.3466 18.9339 28.8424 16.281 28.086C14.9286 27.733 13.6282 27.3296 12.4319 27.027C11.2355 26.7245 10.1952 26.5228 9.15484 26.7245L6.34597 27.1783C5.98186 27.2287 5.35766 27.027 4.62944 26.4723C3.95323 25.9177 3.225 25.0604 2.75686 24.1023C2.23669 23.1947 1.9246 22.1861 1.9246 21.4802C1.9246 20.7238 2.08065 20.3708 2.28871 20.27L5.98186 18.1521C7.23024 17.4965 8.21855 17.194 9.15484 17.1435ZM19.8181 2.06621H23.9794V7.15002H19.8181V2.06621ZM11.5996 2.06621H17.8415V7.46178C17.8415 7.96604 18.2577 8.41987 18.8298 8.41987H24.9677C25.4879 8.41987 25.9561 7.96604 25.9561 7.46178V2.06621H32.198C33.1863 2.06621 33.8105 2.67132 33.8105 3.27643V19.4631L27.0484 21.6315C26.3202 20.1187 24.7597 19.1102 22.3149 18.7068C17.9976 18.0008 15.2927 16.7401 12.848 15.9333C11.9117 15.6308 11.0274 15.4291 10.0911 15.3282V3.226C9.9871 2.67132 10.6113 2.06621 11.5996 2.06621ZM11.5996 0.150024C9.72702 0.150024 8.0625 1.4611 8.0625 3.226V15.4291C7.12621 15.5803 6.1379 15.9333 5.04556 16.5384L1.56048 18.505C0.416129 19.1606 0 20.3708 0 21.5306C0.0520161 22.6904 0.416129 23.9006 1.04032 25.01C1.66452 26.1194 2.44476 27.1783 3.38105 27.9347C4.31734 28.6911 5.46169 29.2458 6.65807 29.0441L9.46694 28.5902C9.88307 28.5398 10.8194 28.6407 11.9117 28.8928C13.004 29.1449 14.3044 29.5483 15.7089 29.9517C18.4657 30.7081 21.5347 31.7166 23.9794 30.7585L38.752 25.0604C39.7923 24.657 40.5206 23.951 40.8327 23.0938C41.1448 22.2366 40.9887 21.3289 40.6246 20.6229C39.8444 19.1606 37.9198 18.2529 35.7351 18.858V3.226C35.7351 1.4611 34.0706 0.150024 32.198 0.150024H11.5996Z" fill="#353535"/>
<path fill-rule="evenodd" clip-rule="evenodd" d="M17.85 0H26.15V7.15C26.15 8.33741 25.1874 9.3 24 9.3H20C18.8126 9.3 17.85 8.33741 17.85 7.15V0ZM20.15 2.3V7H23.85V2.3H20.15Z" fill="#E30613"/>
</svg>
