<!-- width="23" height="16" -->

<svg viewBox="0 0 23 16" fill="none"
    xmlns="http://www.w3.org/2000/svg">
    <g clip-path="url(#clip0)">
        <path d="M0.880863 4.41882H5.28518H5.37326C5.72561 5.92122 7.13499 7.07012 8.80863 7.07012C10.4823 7.07012 11.8036 5.92122 12.244 4.41882H12.3321H22.0216C22.5501 4.41882 22.9024 4.06532 22.9024 3.53506C22.9024 3.0048 22.5501 2.65129 22.0216 2.65129H12.3321H12.244C11.8916 1.14889 10.4823 0 8.80863 0C7.13499 0 5.8137 1.14889 5.37326 2.65129H5.28518H0.880863C0.352345 2.65129 0 3.0048 0 3.53506C0 4.06532 0.352345 4.41882 0.880863 4.41882ZM8.80863 1.76753C9.77758 1.76753 10.5704 2.56292 10.5704 3.53506C10.5704 4.5072 9.77758 5.30259 8.80863 5.30259C7.83968 5.30259 7.0469 4.5072 7.0469 3.53506C7.0469 2.56292 7.83968 1.76753 8.80863 1.76753Z" fill="#353535"/>
        <path d="M0.880863 13.2565H11.4512H11.5393C11.8917 14.7589 13.301 15.9078 14.9747 15.9078C16.6483 15.9078 17.9696 14.7589 18.41 13.2565H18.4981H22.0216C22.5501 13.2565 22.9024 12.903 22.9024 12.3727C22.9024 11.8425 22.5501 11.489 22.0216 11.489H18.4981H18.41C18.0577 9.98657 16.6483 8.83768 14.9747 8.83768C13.301 8.83768 11.9797 9.98657 11.5393 11.489H11.4512H0.880863C0.352345 11.489 0 11.8425 0 12.3727C0 12.903 0.352345 13.2565 0.880863 13.2565ZM14.9747 10.6052C15.9436 10.6052 16.7364 11.4006 16.7364 12.3727C16.7364 13.3449 15.9436 14.1403 14.9747 14.1403C14.0057 14.1403 13.2129 13.3449 13.2129 12.3727C13.2129 11.4006 14.0057 10.6052 14.9747 10.6052Z" fill="#353535"/>
    </g>
    <defs>
        <clipPath id="clip0">
            <rect width="22.9024" height="15.9078" fill="white"/>
        </clipPath>
    </defs>
</svg>
