<svg version="1.1" id="Layer_1"
	xmlns="http://www.w3.org/2000/svg"
	xmlns:xlink="http://www.w3.org/1999/xlink" x="0px" y="0px" viewBox="0 0 21 18" enable-background="new 0 0 21 18" xml:space="preserve">
	<path fill="none" stroke="#E30613" stroke-width="2" stroke-miterlimit="10" d="M18.8,3c-0.9-1.1-2.3-1.8-3.8-2
	c-1.5-0.2-3,0.3-4.1,1.1c-0.1,0.1-0.3,0.2-0.4,0.4C9.5,1.6,8.1,1,6.7,1c-1.5,0-2.9,0.5-4,1.5C2.5,2.7,2.3,2.8,2.2,3
	c-1.6,1.9-1.6,4.5,0,6.7c2.3,3.2,6.4,6.2,7.6,7.1c0.2,0.2,0.5,0.2,0.7,0.2s0.5-0.1,0.7-0.2c1.2-0.9,5.4-3.9,7.6-7.1
	C20.4,7.5,20.4,4.8,18.8,3z"/>
</svg>
