<svg width="58" height="57" viewBox="0 0 58 57" fill="none" xmlns="http://www.w3.org/2000/svg">
<path d="M33.0469 35.0691H24.954C24.2122 35.0691 23.6052 35.6761 23.6052 36.418C23.6052 37.1598 24.2122 37.7668 24.954 37.7668H33.0469C33.7888 37.7668 34.3957 37.1598 34.3957 36.418C34.3957 35.6761 33.7888 35.0691 33.0469 35.0691ZM39.791 28.3251H18.21C17.4681 28.3251 16.8611 28.932 16.8611 29.6739C16.8611 30.4157 17.4681 31.0227 18.21 31.0227H39.791C40.5328 31.0227 41.1398 30.4157 41.1398 29.6739C41.1398 28.932 40.5328 28.3251 39.791 28.3251ZM39.791 28.3251H18.21C17.4681 28.3251 16.8611 28.932 16.8611 29.6739C16.8611 30.4157 17.4681 31.0227 18.21 31.0227H39.791C40.5328 31.0227 41.1398 30.4157 41.1398 29.6739C41.1398 28.932 40.5328 28.3251 39.791 28.3251ZM33.0469 35.0691H24.954C24.2122 35.0691 23.6052 35.6761 23.6052 36.418C23.6052 37.1598 24.2122 37.7668 24.954 37.7668H33.0469C33.7888 37.7668 34.3957 37.1598 34.3957 36.418C34.3957 35.6761 33.7888 35.0691 33.0469 35.0691ZM55.7744 20.974L51.2559 18.6811V4.04644C51.2559 1.8209 49.435 0 47.2094 0H10.7915C8.56594 0 6.74504 1.8209 6.74504 4.04644V18.6811L2.22652 20.974C0.877705 21.6485 0.000976562 23.0647 0.000976562 24.6158V52.6037C0.000976562 54.8293 1.82187 56.6502 4.04742 56.6502H53.9535C56.1791 56.6502 58 54.8293 58 52.6037V24.6158C58 23.0647 57.1907 21.6485 55.7744 20.974ZM9.44267 4.04644C9.44267 3.30459 10.0496 2.69763 10.7915 2.69763H47.2094C47.9513 2.69763 48.5583 3.30459 48.5583 4.04644V29.7413L29.0005 46.1294L9.44267 29.7413V4.04644ZM55.3023 52.6037C55.3023 53.3456 54.6954 53.9525 53.9535 53.9525H4.04742C3.30557 53.9525 2.6986 53.3456 2.6986 52.6037V24.6158C2.6986 24.0763 2.96837 23.6717 3.44045 23.4019L6.74504 21.7159V30.3483C6.74504 30.7529 6.94737 31.0901 7.21713 31.3599L28.1237 48.8945C28.3935 49.0968 28.6633 49.2317 29.0005 49.2317C29.3377 49.2317 29.6074 49.0968 29.8772 48.8945L50.7838 31.3599C51.121 31.0901 51.2559 30.7529 51.2559 30.3483V21.6485L54.5605 23.3345C55.0326 23.5368 55.3023 24.0089 55.3023 24.5484V52.6037ZM41.1398 29.6739C41.1398 28.932 40.5328 28.3251 39.791 28.3251H18.21C17.4681 28.3251 16.8611 28.932 16.8611 29.6739C16.8611 30.4157 17.4681 31.0227 18.21 31.0227H39.791C40.5328 31.0227 41.1398 30.4157 41.1398 29.6739ZM34.3957 36.418C34.3957 35.6761 33.7888 35.0691 33.0469 35.0691H24.954C24.2122 35.0691 23.6052 35.6761 23.6052 36.418C23.6052 37.1598 24.2122 37.7668 24.954 37.7668H33.0469C33.7888 37.7668 34.3957 37.1598 34.3957 36.418Z" fill="#353535"/>
<path d="M41.1409 29.674C41.1409 30.4159 40.534 31.0228 39.7921 31.0228H18.2111C17.4693 31.0228 16.8623 30.4159 16.8623 29.674C16.8623 28.9322 17.4693 28.3252 18.2111 28.3252H39.7921C40.534 28.3252 41.1409 28.9322 41.1409 29.674Z" fill="#353535"/>
<path d="M34.3965 36.4181C34.3965 37.16 33.7895 37.767 33.0477 37.767H24.9548C24.2129 37.767 23.606 37.16 23.606 36.4181C23.606 35.6763 24.2129 35.0693 24.9548 35.0693H33.0477C33.7895 35.0693 34.3965 35.6763 34.3965 36.4181Z" fill="#353535"/>
</svg>
