<svg  viewBox="0 0 36 38" fill="none" xmlns="http://www.w3.org/2000/svg">
<g clip-path="url(#clip0)">
<path d="M18.0236 38C17.2861 38 16.5947 37.6736 16.0877 37.1141L14.1056 34.9693C13.6446 34.4564 12.5845 34.1301 11.893 34.2233L9.03517 34.7828C8.29765 34.9227 7.56014 34.7828 6.9609 34.3166C6.36167 33.8969 5.99291 33.2442 5.90072 32.4515L5.57806 29.5141C5.48587 28.8147 4.84054 27.9288 4.19522 27.6025L1.52172 26.3436C0.830301 26.0172 0.323259 25.4577 0.0927852 24.7583C-0.137689 24.0589 0.000595659 23.4061 0.323259 22.7534L1.7522 20.189C2.07486 19.5828 2.07486 18.4638 1.7522 17.8577L0.323259 15.2933C-0.0454991 14.6405 -0.137689 13.8945 0.0927852 13.1485C0.323259 12.4025 0.830301 11.8896 1.52172 11.5632L4.19522 10.3043C4.84054 10.0245 5.48587 9.09202 5.57806 8.39264L5.90072 5.45521C5.99291 4.7092 6.36167 4.05644 6.9609 3.59018C7.56014 3.12393 8.29765 2.98405 9.03517 3.12393L11.893 3.68344C12.5845 3.82331 13.6446 3.49693 14.1056 2.93742L16.0877 0.746012C16.5947 0.32638 17.2861 0 18.0236 0C18.7612 0 19.4526 0.32638 19.9596 0.88589L21.9417 3.0773C22.4026 3.59018 23.4628 3.91656 24.1542 3.82331L27.0121 3.2638C27.7496 3.12393 28.4872 3.2638 29.0864 3.73006C29.6856 4.14969 30.0544 4.80245 30.1466 5.59509L30.4692 8.53251C30.5614 9.2319 31.2067 10.1178 31.8521 10.4442L34.5256 11.7031C35.217 12.0294 35.724 12.589 35.9545 13.2883C36.185 13.9877 36.0928 14.7337 35.724 15.4331L34.2951 17.9975C33.9724 18.6037 33.9724 19.7227 34.2951 20.3288L35.724 22.8933C36.0928 23.546 36.185 24.292 35.9545 25.038C35.724 25.7374 35.217 26.2969 34.5256 26.6233L31.806 27.6957C31.1606 27.9755 30.5153 28.908 30.4231 29.6074L30.1005 32.5448C30.0083 33.2908 29.6395 33.9436 29.0403 34.4098C28.4411 34.8294 27.7035 35.016 26.966 34.8761L24.1082 34.3166C23.4167 34.1767 22.3566 34.5031 21.8956 35.0626L19.9135 37.254C19.4065 37.7202 18.7151 38 18.0236 38ZM12.2157 32.3583C13.3681 32.3583 14.6587 32.8712 15.4423 33.7104L17.4244 35.9018C17.5627 36.0883 17.7932 36.1816 17.9775 36.1816C18.208 36.1816 18.3924 36.0883 18.5307 35.9018L20.5128 33.7104C21.4347 32.7313 23.0941 32.1718 24.4308 32.4049L27.2887 32.9644C27.5192 33.011 27.7496 32.9644 27.8879 32.8245C28.0723 32.6847 28.1645 32.4982 28.2106 32.265L28.5332 29.3276C28.6715 27.9755 29.7317 26.5301 30.9763 25.9706L33.6498 24.7117C33.8802 24.6184 34.0185 24.4319 34.0646 24.2454C34.1107 24.0589 34.1107 23.8258 33.9724 23.5926L32.5435 21.0282C31.8982 19.8626 31.8982 18.0442 32.5435 16.8785L33.9724 14.3141C34.0646 14.1276 34.1107 13.8945 34.0646 13.6613C34.0185 13.4748 33.8341 13.2883 33.6498 13.1951L30.9763 11.9362C29.7317 11.3767 28.7176 9.93129 28.5332 8.57914L28.2106 5.64172C28.1645 5.40859 28.0723 5.22209 27.8879 5.08221C27.7035 4.94233 27.4731 4.89571 27.2887 4.94233L24.4769 5.59509C23.1402 5.87485 21.4807 5.31534 20.5589 4.28957L18.5768 2.09816C18.2541 1.77178 17.7471 1.77178 17.4244 2.09816L15.4423 4.28957C14.5204 5.26871 12.861 5.82822 11.5243 5.59509L8.66641 5.03558C8.43593 4.98896 8.20546 5.03558 8.06718 5.17546C7.92889 5.31534 7.79061 5.50184 7.74451 5.73497L7.37576 8.62577C7.23747 9.97791 6.17729 11.4233 4.93273 11.9828L2.30533 13.2417C2.07486 13.335 1.93658 13.5215 1.89048 13.708C1.84439 13.8945 1.84439 14.1276 1.98267 14.3607L3.41161 16.9252C4.05693 18.0908 4.05693 19.9092 3.41161 21.0748L1.98267 23.6393C1.89048 23.8258 1.84439 24.0589 1.89048 24.292C1.93658 24.4785 2.12095 24.665 2.30533 24.7583L4.97883 26.0172C6.22339 26.5767 7.23747 28.0221 7.42185 29.3742L7.74451 32.3117C7.79061 32.5448 7.8828 32.7313 8.06718 32.8712C8.25156 33.011 8.48203 33.0577 8.66641 33.011L11.5243 32.4515C11.7548 32.4049 11.9852 32.3583 12.2157 32.3583Z" fill="#353535"/>
<path d="M12.1742 24.9378C12.3251 25.0905 12.5164 25.1691 12.7102 25.1691C12.9039 25.1691 13.0953 25.0905 13.2461 24.9378L23.8718 14.1897C24.176 13.8821 24.176 13.4163 23.8718 13.1087C23.5671 12.8004 23.1047 12.8004 22.7999 13.1087L12.1742 23.8568C11.87 24.1644 11.87 24.6302 12.1742 24.9378Z" fill="#E30613" stroke="#E30613" stroke-width="0.2"/>
<path d="M11.9461 15.6645C11.9461 17.1965 13.1851 18.4515 14.7025 18.4515C16.2198 18.4515 17.4589 17.1965 17.4589 15.6645C17.4589 14.1325 16.2198 12.8774 14.7025 12.8774C13.1851 12.8774 11.9461 14.1325 11.9461 15.6645ZM13.4743 15.6645C13.4743 14.9797 14.0283 14.421 14.7025 14.421C15.3767 14.421 15.9307 14.9797 15.9307 15.6645C15.9307 16.3493 15.3767 16.908 14.7025 16.908C14.0283 16.908 13.4743 16.3493 13.4743 15.6645Z" fill="#E30613" stroke="#E30613" stroke-width="0.2"/>
<path d="M18.5872 22.3821C18.5872 23.9141 19.8262 25.1691 21.3436 25.1691C22.8609 25.1691 24.1 23.9141 24.1 22.3821C24.1 20.8501 22.8609 19.595 21.3436 19.595C19.8262 19.595 18.5872 20.8501 18.5872 22.3821ZM20.1154 22.3821C20.1154 21.6973 20.6694 21.1386 21.3436 21.1386C22.0178 21.1386 22.5718 21.6973 22.5718 22.3821C22.5718 23.0669 22.0178 23.6256 21.3436 23.6256C20.6694 23.6256 20.1154 23.0669 20.1154 22.3821Z" fill="#E30613" stroke="#E30613" stroke-width="0.2"/>
</g>
<defs>
<clipPath id="clip0">
<rect width="36" height="38" fill="white"/>
</clipPath>
</defs>
</svg>
