<svg width="40" height="40" viewBox="0 0 40 40" fill="none" xmlns="http://www.w3.org/2000/svg">
<path d="M21.7176 11.1666L21.7193 11.1666C22.3512 11.1644 22.9829 11.1911 23.6122 11.2466V13.1551H22.4687H22.4678C21.7523 13.1551 21.1875 13.3311 20.8285 13.7709C20.4888 14.1872 20.43 14.7304 20.43 15.2124V17.4169V17.9169H20.93H23.2685L22.9972 20.116H20.9309H20.4309V20.616V28.1658H18.2256V20.616V20.116H17.7256H15.6113V17.916H17.7256H18.2256V17.416V14.8951C18.2256 13.6249 18.6001 12.7049 19.19 12.1042C19.7796 11.5037 20.6389 11.1666 21.7176 11.1666Z" fill="white" stroke="white"/>
<path d="M39.5 20C39.5 30.7696 30.7696 39.5 20 39.5C9.23045 39.5 0.5 30.7696 0.5 20C0.5 9.23045 9.23045 0.5 20 0.5C30.7696 0.5 39.5 9.23045 39.5 20Z" stroke="white"/>
<path d="M19.9998 39.1114C30.5546 39.1114 39.1109 30.555 39.1109 20.0003C39.1109 9.4455 30.5546 0.88916 19.9998 0.88916C9.44501 0.88916 0.888672 9.4455 0.888672 20.0003C0.888672 30.555 9.44501 39.1114 19.9998 39.1114Z" stroke="white"/>
</svg>
