<svg width="41" height="40" viewBox="0 0 41 40" fill="none" xmlns="http://www.w3.org/2000/svg">
<path d="M39.7119 20C39.7119 30.7696 30.9815 39.5 20.2119 39.5C9.44236 39.5 0.711914 30.7696 0.711914 20C0.711914 9.23045 9.44236 0.5 20.2119 0.5C30.9815 0.5 39.7119 9.23045 39.7119 20Z" stroke="white"/>
<path d="M20.2117 39.1114C30.7665 39.1114 39.3228 30.555 39.3228 20.0003C39.3228 9.4455 30.7665 0.88916 20.2117 0.88916C9.65692 0.88916 1.10059 9.4455 1.10059 20.0003C1.10059 30.555 9.65692 39.1114 20.2117 39.1114Z" stroke="white"/>
<g clip-path="url(#clip0)">
<path d="M28.1569 15.9275C28.9703 15.35 29.6544 14.6292 30.2119 13.7992V13.7983C29.4678 14.1242 28.6761 14.3408 27.8494 14.4458C28.6994 13.9383 29.3486 13.1408 29.6536 12.18C28.8611 12.6525 27.9861 12.9858 27.0536 13.1725C26.3011 12.3708 25.2286 11.875 24.0586 11.875C21.7886 11.875 19.9611 13.7175 19.9611 15.9758C19.9611 16.3008 19.9886 16.6133 20.0561 16.9108C16.6477 16.7442 13.6311 15.1108 11.6044 12.6217C11.2511 13.2358 11.0427 13.9383 11.0427 14.6942C11.0427 16.1142 11.7736 17.3725 12.8644 18.1017C12.2052 18.0892 11.5594 17.8975 11.0119 17.5967V17.6417C11.0119 19.6342 12.4327 21.2892 14.2969 21.6708C13.9627 21.7625 13.5994 21.8058 13.2219 21.8058C12.9594 21.8058 12.6944 21.7908 12.4461 21.7358C12.9769 23.3592 14.4852 24.5533 16.2769 24.5925C14.8819 25.6833 13.1102 26.3408 11.1927 26.3408C10.8569 26.3408 10.5344 26.3258 10.2119 26.285C12.0286 27.4558 14.1802 28.125 16.5019 28.125C23.7377 28.125 28.4536 22.0883 28.1569 15.9275Z" fill="white"/>
</g>
<defs>
<clipPath id="clip0">
<rect width="20" height="20" fill="white" transform="translate(10.2119 10)"/>
</clipPath>
</defs>
</svg>
