<!-- width="30" height="29" -->

<svg viewBox="0 0 30 29" fill="none"
    xmlns="http://www.w3.org/2000/svg">
    <path d="M13.2415 1.53935C13.9635 0.0861478 16.0365 0.0861456 16.7585 1.53935L19.8549 7.77119C20.1408 8.34666 20.6902 8.74582 21.3258 8.83992L28.2095 9.85894C29.8147 10.0966 30.4553 12.0681 29.2963 13.2039L24.3263 18.0744C23.8673 18.5242 23.6575 19.17 23.7644 19.8036L24.9224 26.6653C25.1925 28.2653 23.5154 29.4838 22.0771 28.7326L15.9091 25.5109C15.3395 25.2134 14.6605 25.2134 14.0909 25.5109L7.92293 28.7326C6.48463 29.4838 4.80752 28.2653 5.07755 26.6653L6.23557 19.8036C6.3425 19.17 6.13265 18.5242 5.6737 18.0744L0.703685 13.2039C-0.455272 12.0681 0.185324 10.0966 1.79052 9.85894L8.67417 8.83992C9.30982 8.74582 9.85923 8.34666 10.1451 7.77119L13.2415 1.53935Z" fill="#353535"/>
</svg>
