<svg width="28" height="39" viewBox="0 0 28 39" fill="none" xmlns="http://www.w3.org/2000/svg">
<path d="M16.2844 2.29463L15.3505 2.15219C15.2593 2.13723 15.1725 2.1027 15.0959 2.05097C15.0194 1.99924 14.9549 1.93154 14.907 1.85253L14.4932 1.00866C14.4451 0.911804 14.371 0.830291 14.2791 0.773306C14.1872 0.71632 14.0812 0.686127 13.9731 0.686127C13.865 0.686127 13.759 0.71632 13.6672 0.773306C13.5753 0.830291 13.5011 0.911804 13.4531 1.00866L13.0379 1.85253C12.9948 1.93627 12.932 2.00835 12.8551 2.06263C12.7781 2.11691 12.6891 2.15178 12.5958 2.16428L11.6619 2.29463C11.5543 2.30906 11.453 2.35348 11.3696 2.4228C11.2861 2.49212 11.2239 2.58354 11.1899 2.6866C11.156 2.78965 11.1518 2.90018 11.1777 3.00553C11.2037 3.11088 11.2588 3.20679 11.3367 3.28228L12.0112 3.94475C12.0786 4.009 12.1293 4.08874 12.1588 4.17703C12.1883 4.26533 12.1958 4.3595 12.1806 4.45135L12.0247 5.38525C12.0193 5.41767 12.0166 5.45048 12.0166 5.48335C11.7261 5.74125 11.4843 6.04942 11.3031 6.39306V6.39575L7.67631 13.2825C7.42243 13.7668 7.28768 14.3047 7.28324 14.8516C7.2788 15.3984 7.4048 15.9384 7.65078 16.4268C5.81387 17.518 4.59375 19.4288 4.59375 21.5989C4.59375 22.0921 4.70931 22.5611 4.91759 22.9817C2.34297 24.2811 0.5625 27.0331 0.5625 30.211C0.5625 33.1955 2.90063 35.625 5.77356 35.625H8.84269L8.65322 36.6422C8.62495 36.7946 8.61861 36.9503 8.63441 37.1045C8.56453 37.6097 8.90181 38.0814 9.39631 38.2399C9.51216 38.288 9.63638 38.3127 9.76181 38.3125H18.2436C18.3726 38.3125 18.4962 38.2856 18.6104 38.2386C19.1049 38.0773 19.4328 37.6003 19.3669 37.091C19.3809 36.9414 19.3755 36.7905 19.3508 36.6422L19.16 35.625H22.2251C25.0994 35.625 27.4375 33.1955 27.4375 30.2164C27.4456 28.0127 26.6111 25.9581 25.0886 24.4289C24.5034 23.8395 23.8269 23.3486 23.0851 22.9749C23.292 22.557 23.4062 22.0908 23.4062 21.5989C23.4062 19.4274 22.1875 17.5193 20.3519 16.4282C20.5961 15.9394 20.7209 15.3998 20.7163 14.8534C20.7116 14.3071 20.5775 13.7697 20.325 13.2852L16.7023 6.40381C16.5104 6.03086 16.247 5.69936 15.9269 5.42825C15.9257 5.41386 15.9239 5.39952 15.9216 5.38525L15.7657 4.45135C15.7503 4.35961 15.7576 4.26551 15.7868 4.17722C15.8161 4.08893 15.8665 4.00913 15.9337 3.94475L16.6096 3.28228C16.6875 3.20679 16.7426 3.11088 16.7685 3.00553C16.7945 2.90018 16.7903 2.78965 16.7563 2.6866C16.7224 2.58354 16.6601 2.49212 16.5767 2.4228C16.4932 2.35348 16.3919 2.30906 16.2844 2.29463ZM5.77356 32.9375C4.38278 32.9375 3.25 31.7147 3.25 30.211C3.25 27.2682 5.49406 24.875 8.25278 24.875C8.60916 24.875 8.95095 24.7334 9.20296 24.4814C9.45496 24.2294 9.59653 23.8876 9.59653 23.5313C9.59653 23.1749 9.45496 22.8331 9.20296 22.5811C8.95095 22.3291 8.60916 22.1875 8.25278 22.1875H8.05928C7.63734 22.1875 7.28125 21.9174 7.28125 21.5989C7.28125 19.7002 9.0335 18.1563 11.1889 18.1563C11.5453 18.1563 11.887 18.0147 12.139 17.7627C12.3911 17.5107 12.5326 17.1689 12.5326 16.8125C12.5326 16.4561 12.3911 16.1143 12.139 15.8623C11.887 15.6103 11.5453 15.4688 11.1889 15.4688H10.3799C10.2321 15.4688 10.1313 15.3545 10.0736 15.2578C10.0089 15.1495 9.9731 15.0264 9.96957 14.9003C9.96604 14.7742 9.9949 14.6493 10.0534 14.5375L13.6802 7.64947C13.7635 7.49091 13.8791 7.40625 14.0054 7.40625H14.0067C14.129 7.40625 14.2365 7.48822 14.3198 7.64813L17.9452 14.5335C18.0049 14.6463 18.0346 14.7724 18.0315 14.8999C18.0284 15.0274 17.9927 15.152 17.9278 15.2618C17.87 15.3559 17.7706 15.4688 17.6201 15.4688H16.8111C16.4547 15.4688 16.113 15.6103 15.8609 15.8623C15.6089 16.1143 15.4674 16.4561 15.4674 16.8125C15.4674 17.1689 15.6089 17.5107 15.8609 17.7627C16.113 18.0147 16.4547 18.1563 16.8111 18.1563C18.9665 18.1563 20.7187 19.7016 20.7187 21.5989C20.7187 21.9174 20.3613 22.1875 19.9407 22.1875H19.7472C19.3908 22.1875 19.049 22.3291 18.797 22.5811C18.545 22.8331 18.4035 23.1749 18.4035 23.5313C18.4035 23.8876 18.545 24.2294 18.797 24.4814C19.049 24.7334 19.3908 24.875 19.7472 24.875C21.0318 24.875 22.2533 25.391 23.1845 26.3249C24.1991 27.3448 24.7554 28.7235 24.75 30.211C24.75 31.7147 23.6186 32.9375 22.2264 32.9375H5.77356Z" fill="black"/>
</svg>
